<?xml version="1.0" encoding="UTF-8" standalone="no"?>
<svg
   viewBox="0 0 110 110"
   version="1.1"
   id="svg32"
   sodipodi:docname="crystalgall.svg"
   xml:space="preserve"
   width="110"
   height="110"
   xmlns:inkscape="http://www.inkscape.org/namespaces/inkscape"
   xmlns:sodipodi="http://sodipodi.sourceforge.net/DTD/sodipodi-0.dtd"
   xmlns="http://www.w3.org/2000/svg"
   xmlns:svg="http://www.w3.org/2000/svg"><defs
     id="defs32"><clipPath
       id="vRahAwulGNTr"><path
         fill="none"
         stroke="none"
         d="M 116.83481,-133.72916 H 1791.1016 V 550.25847 H 116.83481 Z"
         id="path4"
         sodipodi:nodetypes="ccccc" /></clipPath></defs><sodipodi:namedview
     id="namedview32"
     pagecolor="#ffffff"
     bordercolor="#cccccc"
     borderopacity="1"
     inkscape:showpageshadow="0"
     inkscape:pageopacity="1"
     inkscape:pagecheckerboard="0"
     inkscape:deskcolor="#d1d1d1"><inkscape:page
       x="0"
       y="0"
       width="110"
       height="110"
       id="page2"
       margin="0"
       bleed="0" /></sodipodi:namedview><clipPath
     id="a"><rect
       width="91.667"
       height="91.667"
       x="9.1669998"
       y="9.1669998"
       rx="4.1669998"
       ry="4.1669998"
       id="rect1" /></clipPath><g
     clip-path="url(#a)"
     id="g32"><g
       id="g456"
       transform="matrix(0.09145947,0,0,0.09145947,-80.850238,20.037544)"
       style="display:inline"><path
         fill="#000000"
         stroke="none"
         paint-order="stroke fill markers"
         d="m 1820.8654,468.29517 q 0,138.41024 -97.8709,236.28108 -97.8709,97.8709 -236.2811,97.8709 -138.4103,0 -236.2812,-97.8709 -97.8708,-97.87084 -97.8708,-236.28108 0,-138.41032 97.8708,-236.28113 97.8709,-97.87085 236.2812,-97.87085 138.4102,0 236.2811,97.87085 97.8709,97.87081 97.8709,236.28113"
         id="path128" /><g
         id="g455"><path
           fill="#19afb2"
           stroke="none"
           paint-order="stroke fill markers"
           d="m 1466.2449,27.36853 -44.1015,38.345577 4.8124,104.065403 33.828,16.75019 25.389,-12.285 32.6584,12.6814 9.9689,-17.72971 26.1687,20.60603 33.6937,-8.80261 9.5659,-38.20471 15.7084,54.3816 21.294,13.10399 23.5708,-11.41031 9.1892,31.40373 -7.6494,10.68634 33.0417,43.03026 33.7199,-0.96641 1.0745,17.78868 30.8861,15.20719 0.5504,9.75921 -4.8649,-0.34069 -20.4553,47.23991 39.9901,60.49135 23.4201,8.55361 0.3604,22.33904 -5.7494,2.30959 3.9017,37.09744 -14.3817,-11.4529 -37.674,42.58799 9.412,83.14489 -18.6011,-25.1433 -52.9795,42.27352 -0.19,58.5323 -34.7387,-45.34967 -46.3882,58.55195 -1.1269,28.48479 -29.2415,41.60519 13.6281,-46.41112 -46.3226,-49.79518 -39.9344,41.73625 1.1269,13.27436 -39.3776,-50.38159 -50.3848,44.5896 0.5831,44.01635 -17.6347,-16.7731 -4.1736,7.70517 -7.9509,-86.01794 -46.2047,-21.53314 -15.3054,28.39636 -11.8166,-32.23582 -38.2178,-9.27109 -19.3546,27.16132 -18.3194,-62.03105 -30.303,-19.656 -9.2154,-44.99586 14.0573,-5.99509 27.0467,-93.15959 -30.0966,-33.51346 -21.697,14.17853 2.6798,-40.05564 26.2342,-14.31613 0.7535,-8.94349 13.9885,5.66749 44.226,-55.69199 -11.5053,-37.07122 13.3726,-69.06463 -0.5569,24.78295 26.1261,17.47418 32.3505,-17.199 3.7346,-16.68795 12.6454,10.54545 27.4365,-14.3325 10.7485,-22.54214 28.4488,2.14905 15.8362,-20.92709 -12.8551,-85.886886 -45.212,-24.455339 -28.3964,42.401265 20.9336,46.13263 -16.1179,6.74528 2.5094,-11.19736 -36.855,-34.06057 -39.1776,26.13265 -1.0484,46.5192 -42.6894,-31.58732 -32.0262,46.22763 11.3251,53.22845 -38.9451,-17.59213 -33.7755,49.7395 15.2497,66.1326 -15.0532,-11.04013 -36.855,56.511 32.9631,80.94995 -13.5069,-4.44226 -15.6298,76.50116 30.5389,45.97212 -8.1442,-0.55691 -2.0802,41.14655 30.9483,35.89183 29.6642,1.70353 22.4504,62.29968 42.3391,1.18921 17.3333,41.08102 26.6371,11.57737 24.3342,-17.33661 18.0245,51.54461 h 34.4995 l 16.688,32.75999 26.6175,6.9615 19.407,-17.74936 22.5848,7.52496 26.0605,-20.84521 16.5111,-81.56258 -4.2752,75.83288 30.3096,22.76164 31.5806,-14.13595 14.4865,-49.31035 0.4979,33.72966 26.3619,24.33416 31.1745,-14.47337 2.8534,-25.14656 15.9246,13.59213 27.9574,-21.82472 9.009,-52.3898 28.4389,20.19327 35.2236,-29.79192 13.9688,-49.27432 16.8026,14.60768 56.0294,-33.62488 -8.19,-58.149 -15.3874,6.01473 4.2424,-20.8845 25.127,-5.02212 33.9885,-101.14649 -20.6814,-41.64123 21.0909,-48.85827 -27.027,-46.68299 -25.199,13.01554 -4.534,-6.92546 24.4062,-75.67886 -36.9729,-41.53313 -5.7789,4.66504 15.3185,-50.7911 -37.674,-35.217 -53.2611,44.48154 6.5781,-72.32752 -42.5879,-34.397999 -16.8059,18.355429 -38.0671,-30.640429 -23.9705,27.026999 6.7715,-27.026999 -26.208,-44.225997 -58.968,37.673998 0.4259,44.389798 -31.6069,8.51104 5.543,-54.276765 z"
           id="path129"
           style="display:inline" /><path
           fill="#1fdbde"
           stroke="none"
           paint-order="stroke fill markers"
           d="m 1154.2256,443.12567 28.9795,30.19487 49.0286,-27.99341 -30.0966,-33.51346 z m 580.0682,-70.44709 41.9131,-0.85832 22.3424,-43.2956 -43.8001,-3.08599 z m -236.6124,349.54916 41.5299,36.30134 44.7272,-28.23256 -46.3292,-49.80503 z m 149.3823,-74.16863 -5.2121,63.12853 15.8067,18.25389 31.1023,-26.94182 z m 34.9287,-13.17608 41.9787,33.00899 32.2915,-46.50285 -21.2875,-28.78291 z m 62.1687,-100.27836 41.769,23.751 40.131,-31.122 -44.226,-35.21699 z m 48.1506,-68.23578 30.4734,30.56179 49.5495,-12.6945 -20.6782,-41.63798 z m 4.2654,-93.92618 30.0147,43.39062 46.1523,-22.09662 -27.027,-46.683 z m 6.837,-136.51091 -13.3071,62.34228 50.2866,-20.81242 z m -28.131,-81.34308 -6.6044,58.55523 34.4864,9.13021 9.7919,-32.46844 z m -133.497,-13.923 31.3382,22.66992 55.4758,-36.59292 -42.588,-34.397993 z m -49.14,-17.19899 35.3055,8.01964 31.597,-28.56018 -28.4094,-22.866474 z m -63.882,-49.959002 27.3775,28.442232 57.7985,-21.890232 -26.208,-44.225997 z m -106.6207,-7.796883 27.1777,36.871385 53.805,-30.450422 -36.8845,-44.766537 z m -81.6445,36.130985 40.4357,10.57166 33.1728,-28.520861 -45.2154,-24.448784 z m -68.7108,33.74936 -0.7371,32.74034 29.3595,-0.20311 22.4669,-43.17768 -11.9083,-15.48893 z m -75.7607,61.16291 37.5429,20.44223 40.8222,-32.38654 -46.3422,-34.2866 z m -48.8714,66.9254 29.4381,33.82469 42.588,-42.1785 -50.778,-22.932 z m -49.1859,130.05718 37.9427,10.00491 48.0523,-30.47991 -49.14,-36.03599 z m 19.4595,76.50771 23.0466,52.6191 47.276,5.1335 -7.6069,-37.14658 z m 52.5306,165.23814 29.0581,12.52744 31.6298,-38.8763 -33.7329,-20.61257 z m 98.3587,8.52417 -2.3588,65.64122 52.3964,-24.13756 -11.8166,-32.23582 z m 30.6371,77.50032 36.5405,18.05729 44.3669,-60.91392 -46.2047,-21.53644 z m 110.09,8.20964 25.9426,23.9705 19.656,-6.9615 15.0598,-48.45202 -10.2736,-13.14658 z"
           id="path130"
           style="display:inline" /><path
           fill="#148c8e"
           stroke="none"
           paint-order="stroke fill markers"
           d="m 1364.2909,806.74805 40.131,14.33575 -1.3776,3.85635 -3.0023,-2.78482 26.208,-28.25544 3.0023,2.78477 -4.059,-0.54122 5.733,-42.9975 q 0.1523,-1.14297 0.8787,-2.03845 0.7263,-0.89548 1.8132,-1.28039 l 19.656,-6.9615 q 0.088,-0.0314 0.1783,-0.0586 0.09,-0.0272 0.1808,-0.0503 l 44.167,-11.21701 q 1.644,-0.4176 3.1017,0.44969 1.4578,0.86719 1.8753,2.51129 0.4175,1.64394 -0.4497,3.10174 -0.8673,1.45769 -2.5113,1.87524 l -44.167,11.21701 -1.008,-3.96898 1.3671,3.86006 -19.656,6.9615 -1.3671,-3.86006 4.0591,0.54122 -5.733,42.99749 q -0.084,0.6293 -0.3544,1.20366 -0.2706,0.57441 -0.7024,1.0399 l -26.2079,28.25554 q -0.8356,0.90088 -2.0292,1.19291 -1.1936,0.29203 -2.3507,-0.12137 l -40.131,-14.33575 q -1.5974,-0.57066 -2.3234,-2.10363 -0.726,-1.53298 -0.1554,-3.13029 0.5706,-1.59741 2.1036,-2.32348 1.533,-0.72597 3.1303,-0.15531 z m 42.7398,17.24154 8.5995,36.03599 q 0.3938,1.6498 -0.4945,3.09485 -0.8883,1.44504 -2.5381,1.83885 -1.6499,0.3937 -3.095,-0.49458 -1.445,-0.88818 -1.8387,-2.53798 l -8.5995,-36.036 q -0.3937,-1.6499 0.4945,-3.09494 0.8883,-1.44505 2.5382,-1.83875 1.6498,-0.39381 3.0948,0.49448 1.4451,0.88818 1.8388,2.53808 z m 66.5841,-124.50054 -15.0598,48.45201 -3.9104,-1.21545 3.921,-1.18106 25.0548,83.17758 q 0.4892,1.624 -0.3133,3.11844 -0.8025,1.49433 -2.4266,1.98361 -1.6242,0.48918 -3.1185,-0.31332 -1.4944,-0.8025 -1.9836,-2.42651 l -25.0548,-83.17768 q -0.1767,-0.58646 -0.1739,-1.19901 0,-0.61255 0.1844,-1.1975 l 15.0598,-48.45202 q 0.5034,-1.6198 2.0048,-2.40916 1.5013,-0.78931 3.1211,-0.28583 1.6197,0.50343 2.4091,2.00471 0.7893,1.50138 0.2859,3.12119 z m -61.7898,27.22325 25.9426,23.97049 -2.779,3.00767 -1.3671,-3.86006 19.656,-6.9615 q 0.089,-0.0313 0.1783,-0.0585 0.09,-0.0272 0.1808,-0.0504 l 44.1637,-11.21701 q 1.644,-0.4176 3.1017,0.44959 1.4578,0.86729 1.8754,2.51133 0.4175,1.64395 -0.4497,3.1017 -0.8673,1.45774 -2.5113,1.87534 l -44.1637,11.21701 -1.0081,-3.96898 1.3671,3.86006 -19.656,6.9615 q -1.0748,0.3807 -2.1917,0.15106 -1.1169,-0.22965 -1.9544,-1.00346 l -25.9426,-23.97049 q -1.2459,-1.15117 -1.3128,-2.84606 -0.067,-1.69488 1.0841,-2.94063 1.1511,-1.24584 2.846,-1.31283 1.6949,-0.067 2.9407,1.08419 z m 20.5212,112.62974 22.588,7.53156 -1.2953,3.88475 -2.5581,-3.19762 26.0606,-20.84851 2.5581,3.19762 -4.0136,-0.8125 19.109,-94.39789 4.0135,0.81245 -3.2264,2.52173 -39.3775,-50.38159 3.2264,-2.52174 2.7139,3.06661 -50.3849,44.5896 -2.7139,-3.0666 4.0947,-0.0539 0.606,46.07039 q 0.022,1.69604 -1.1612,2.91114 -1.1835,1.21505 -2.8796,1.2374 -1.696,0.0223 -2.9111,-1.16122 -1.2151,-1.18351 -1.2374,-2.87954 l -0.606,-46.0704 q -0.012,-0.89368 0.3499,-1.71093 0.3616,-0.81725 1.0309,-1.40956 l 50.3848,-44.58961 q 0.047,-0.0414 0.095,-0.0814 0.048,-0.0399 0.097,-0.0784 1.3363,-1.04459 3.02,-0.83819 1.6836,0.2064 2.7281,1.54287 l 39.3775,50.38159 q 0.5528,0.70728 0.7591,1.58087 0.2062,0.87358 0.028,1.75332 l -19.1089,94.39799 q -0.1429,0.70573 -0.5181,1.32048 -0.3751,0.61475 -0.9374,1.06464 l -26.0606,20.84851 q -0.8136,0.65084 -1.8393,0.83379 -1.0257,0.18296 -2.0141,-0.14666 l -22.588,-7.53156 q -1.6092,-0.53657 -2.3676,-2.0538 -0.7584,-1.51713 -0.2219,-3.12624 0.5365,-1.6092 2.0537,-2.36762 1.5172,-0.75841 3.1264,-0.22184 z m -37.3685,-85.1774 37.2644,39.7215 q 0.5063,0.53957 0.7916,1.22215 0.2854,0.68258 0.3139,1.42175 l 1.7953,46.54209 q 0.035,0.90267 -0.3134,1.73617 -0.3482,0.8335 -1.0146,1.44325 l -19.4038,17.74936 q -0.7688,0.70333 -1.7804,0.95357 -1.0115,0.25034 -2.0197,-0.0134 l -26.6175,-6.9615 q -0.8483,-0.22194 -1.5315,-0.77181 -0.6831,-0.54986 -1.0811,-1.33107 l -22.113,-43.407 q -0.4587,-0.90043 -0.4458,-1.91098 0.013,-1.01056 0.4944,-1.89914 l 29.0745,-53.64445 q 0.8082,-1.49133 2.4342,-1.97431 1.626,-0.48289 3.1172,0.32537 0.2893,0.15681 0.5498,0.35766 0.2604,0.20095 0.4855,0.44079 z m -5.973,5.60353 2.9865,-2.80176 3.6002,1.95127 -29.0745,53.64445 -3.6002,-1.95128 3.6488,-1.85884 22.113,43.407 -3.6488,1.85884 1.0361,-3.96173 26.6175,6.9615 -1.0361,3.96173 -2.7639,-3.02156 19.4037,-17.74937 2.7639,3.02157 -4.0919,0.15786 -1.7953,-46.54208 4.092,-0.15786 -2.9865,2.80176 z m 154.2315,-0.46393 -16.9697,88.40935 q -0.3198,1.66569 -1.7238,2.61756 -1.4039,0.95187 -3.0697,0.63215 -1.6658,-0.31982 -2.6176,-1.72378 -0.9518,-1.40406 -0.632,-3.06975 l 16.9696,-88.40936 q 0.3198,-1.66584 1.7237,-2.61766 1.404,-0.95176 3.0698,-0.63199 1.6658,0.31972 2.6176,1.72368 0.9518,1.40395 0.6321,3.0698 z m -42.8597,-40.15649 41.5299,36.30133 -2.695,3.0832 -2.1859,-3.46286 44.7273,-28.23255 q 1.4343,-0.90543 3.0888,-0.53142 1.6544,0.37406 2.5598,1.80846 0.9054,1.43435 0.5314,3.08879 -0.374,1.65445 -1.8084,2.55988 l -44.7272,28.23255 q -1.1489,0.72522 -2.5034,0.61985 -1.3545,-0.10533 -2.3774,-0.99951 l -41.5299,-36.30133 q -1.2771,-1.11633 -1.3908,-2.80871 -0.1137,-1.69244 1.0026,-2.96948 1.1163,-1.27714 2.8087,-1.39091 1.6924,-0.11367 2.9695,1.00271 z m -7.5567,16.61929 0.7732,-13.76574 q 0.041,-0.73042 0.3324,-1.40146 0.2914,-0.67104 0.7971,-1.19971 l 39.9279,-41.73625 q 1.1725,-1.2257 2.8683,-1.26324 1.6958,-0.0375 2.9215,1.13507 0.043,0.0412 0.085,0.0837 0.042,0.0425 0.082,0.0862 l 46.3292,49.80503 q 0.7382,0.79361 0.9872,1.84845 0.249,1.05494 -0.056,2.09484 l -30.113,102.50601 q -0.2534,0.86229 -0.8445,1.53922 -0.5912,0.67694 -1.4115,1.04425 l -31.5806,14.13595 q -1.0193,0.45609 -2.129,0.33172 -1.1097,-0.12427 -2.0027,-0.79461 l -30.3128,-22.75834 q -0.8216,-0.61675 -1.2547,-1.54832 -0.4331,-0.93148 -0.3752,-1.95712 l 4.2785,-75.83613 q 0.095,-1.69354 1.3605,-2.82351 1.2651,-1.12997 2.9586,-1.03435 1.6935,0.0955 2.8234,1.36052 1.1299,1.26504 1.0345,2.95863 l -4.2785,75.83612 -4.0885,-0.23064 2.4587,-3.2748 30.3128,22.75834 -2.4586,3.2748 -1.6731,-3.73769 31.5806,-14.13594 1.6731,3.73768 -3.929,-1.15422 30.113,-102.50601 3.929,1.15422 -2.9983,2.78907 -46.3292,-49.80503 2.9983,-2.78907 2.959,2.83081 -39.9279,41.73625 -2.959,-2.83081 4.0886,0.22965 -0.7732,13.76573 q -0.095,1.69349 -1.3599,2.82371 -1.2648,1.13028 -2.9583,1.0352 -1.6935,-0.0951 -2.8238,-1.35992 -1.1302,-1.26479 -1.0351,-2.95827 z m 162.1574,-9.41755 31.1024,-26.94182 q 1.282,-1.11063 2.9739,-0.98931 1.6918,0.12122 2.8024,1.40336 1.1106,1.28198 0.9893,2.97387 -0.1212,1.69189 -1.4033,2.80247 l -31.1023,26.94181 q -1.2822,1.11053 -2.974,0.98926 -1.6919,-0.12127 -2.8024,-1.4033 -1.1106,-1.28209 -0.9894,-2.97398 0.1213,-1.69188 1.4034,-2.80236 z m -53.8495,-23.80519 41.176,4.57328 q 1.6858,0.18721 2.7455,1.51168 1.0596,1.32448 0.8724,3.01032 -0.1873,1.68579 -1.5117,2.74548 -1.3245,1.05964 -3.0103,0.87244 l -41.176,-4.57329 q -1.6858,-0.1873 -2.7455,-1.51178 -1.0597,-1.32442 -0.8724,-3.01021 0.1872,-1.68584 1.5117,-2.74553 1.3244,-1.05969 3.0103,-0.87239 z m 50.0172,-54.14177 -5.2121,63.12198 -4.0811,-0.33697 3.0959,-2.6804 15.8067,18.25715 q 0.584,0.67458 0.8344,1.53097 0.2505,0.85634 0.122,1.73928 l -12.5307,86.08667 q -0.2443,1.67849 -1.6041,2.69254 -1.3596,1.01415 -3.0381,0.76991 -1.6786,-0.24444 -2.6927,-1.60401 -1.0141,-1.35966 -0.7697,-3.0381 l 12.5307,-86.08673 4.0523,0.58986 -3.0959,2.6804 -15.8067,-18.25714 q -0.5405,-0.62435 -0.7969,-1.40941 -0.2563,-0.78501 -0.1883,-1.60796 l 5.2121,-63.12198 q 0.1396,-1.69049 1.4336,-2.78712 1.294,-1.09663 2.9845,-0.95701 1.6904,0.13956 2.787,1.43355 1.0967,1.29403 0.9571,2.98452 z m -55.6913,86.54076 1.1302,-28.49139 q 0.026,-0.65029 0.2519,-1.2605 0.2261,-0.6102 0.6303,-1.12022 l 46.3881,-58.54865 q 1.0533,-1.32953 2.7383,-1.52478 1.6849,-0.19525 3.0144,0.85814 0.1986,0.15731 0.3763,0.33787 0.1776,0.18061 0.3316,0.38171 l 41.6969,54.4373 q 0.5203,0.67923 0.7251,1.50993 0.2048,0.8307 0.06,1.67394 l -15.6789,91.20382 q -0.1294,0.75277 -0.5215,1.40831 -0.3922,0.65554 -0.9943,1.12567 l -27.9541,21.82472 q -1.1501,0.89798 -2.6089,0.86629 -1.4588,-0.0317 -2.5689,-0.97876 l -15.9279,-13.58883 q -1.2905,-1.10098 -1.4244,-2.79187 -0.134,-1.69088 0.9669,-2.98122 1.1009,-1.29043 2.7918,-1.4244 1.6908,-0.13402 2.9813,0.96691 l 15.9279,13.58883 -2.6578,3.11529 -2.52,-3.22776 27.9541,-21.82472 2.52,3.22776 -4.0358,-0.69378 15.6789,-91.20382 4.0358,0.69378 -3.2509,2.49009 -41.6969,-54.4373 3.2509,-2.49009 3.2097,2.54303 -46.3882,58.54865 -3.2097,-2.54303 4.0918,0.16231 -1.1302,28.49139 q -0.067,1.69483 -1.3133,2.84575 -1.246,1.15092 -2.9408,1.08374 -1.6949,-0.0673 -2.8458,-1.31328 -1.151,-1.246 -1.0837,-2.94083 z m 15.4996,59.32336 -11.8034,48.26861 q -0.403,1.64759 -1.8529,2.52778 -1.45,0.88018 -3.0976,0.47728 -1.6477,-0.403 -2.5279,-1.85305 -0.8801,-1.44994 -0.4772,-3.09754 l 11.8034,-48.26851 q 0.4029,-1.6477 1.8529,-2.52788 1.45,-0.88014 3.0976,-0.47718 1.6477,0.4029 2.5278,1.85284 0.8801,1.44995 0.4773,3.09765 z m -38.958,-21.29005 36.6682,16.58964 -1.688,3.73094 -2.8185,-2.97072 26.0082,-24.67482 q 1.2304,-1.16752 2.9261,-1.12293 1.6956,0.0446 2.8631,1.27519 1.1674,1.23045 1.1228,2.92603 -0.045,1.69564 -1.2751,2.86315 l -26.0081,24.67483 q -0.906,0.85954 -2.1373,1.06729 -1.2314,0.2077 -2.3692,-0.30708 l -36.6682,-16.58965 q -1.5454,-0.69922 -2.1438,-2.28639 -0.5984,-1.58716 0.1008,-3.13253 0.6992,-1.54542 2.2863,-2.14378 1.5872,-0.59845 3.1327,0.10083 z m 30.9007,-35.51973 -29.2384,41.60519 -3.3504,-2.35452 4.0922,0.15086 -1.4938,40.5176 -4.0922,-0.15086 2.7779,-3.00867 26.3587,24.33736 -2.7779,3.00866 -1.7252,-3.71389 31.1711,-14.47996 1.7252,3.71389 -4.0688,-0.46219 6.6404,-58.46022 4.0689,0.46219 -2.8992,2.89204 -33.4381,-33.51996 2.8991,-2.89204 z m -6.7009,-4.70905 q 0.1025,-0.14581 0.2173,-0.28228 0.1149,-0.13636 0.2411,-0.26233 1.2008,-1.19796 2.897,-1.19591 1.6962,0.002 2.8942,1.203 l 33.4381,33.51997 q 0.6598,0.66144 0.9675,1.54362 0.3076,0.88223 0.2022,1.81061 l -6.6404,58.46022 q -0.1209,1.06364 -0.7468,1.93213 -0.626,0.86848 -1.5969,1.31957 l -31.1711,14.47997 q -1.129,0.52437 -2.3588,0.33182 -1.2298,-0.19266 -2.1443,-1.03705 l -26.3587,-24.33736 q -0.6587,-0.60815 -1.003,-1.43585 -0.3444,-0.82779 -0.3113,-1.72367 l 1.4938,-40.51761 q 0.022,-0.59315 0.2112,-1.15562 0.1893,-0.56251 0.5306,-1.04804 z m -257.0474,4.95879 31.9639,62.6535 q 0.7708,1.51088 0.2475,3.12428 -0.5234,1.61351 -2.0343,2.38437 -1.5109,0.77076 -3.1244,0.24749 -1.6134,-0.52337 -2.3842,-2.03425 l -31.964,-62.6535 q -0.7708,-1.51098 -0.2475,-3.12443 0.5233,-1.61346 2.0343,-2.38422 1.5109,-0.77086 3.1243,-0.24759 1.6135,0.52337 2.3844,2.03435 z m -38.3773,-19.86754 36.5405,18.05728 -1.8143,3.67121 -3.31,-2.41091 44.3668,-60.91392 q 0.9986,-1.37112 2.6743,-1.6345 1.6756,-0.26339 3.0467,0.73532 1.3711,0.9986 1.6344,2.67424 0.2634,1.67564 -0.7352,3.04676 l -44.3669,60.91392 q -0.8802,1.20845 -2.3321,1.56552 -1.4518,0.35711 -2.7922,-0.30523 l -36.5405,-18.05729 q -1.5206,-0.75151 -2.0646,-2.35817 -0.5438,-1.60661 0.2076,-3.12724 0.7515,-1.52068 2.3581,-2.06459 1.6067,-0.54392 3.1274,0.2076 z m 82.9663,47.20611 -7.9508,-86.01464 4.0776,-0.3769 -1.73,3.71159 -46.2047,-21.53644 1.73,-3.71159 3.6049,1.94272 -34.7027,64.39307 -3.6049,-1.94272 3.8655,-1.35192 34.8861,99.74773 -3.8654,1.35187 v -4.095 h 34.4962 q 1.6962,0 2.8956,1.19931 1.1994,1.19951 1.1994,2.89569 0,1.69619 -1.1994,2.8955 -1.1994,1.1994 -2.8956,1.1995 h -34.4962 q -1.3054,0 -2.37,-0.75551 -1.0645,-0.75552 -1.4954,-1.98762 l -34.8862,-99.74763 q -0.2848,-0.8146 -0.2168,-1.67479 0.068,-0.86029 0.4774,-1.61986 l 34.7027,-64.39307 q 0.7718,-1.43215 2.316,-1.94412 1.5443,-0.51203 3.0188,0.17525 l 46.2047,21.53644 q 0.9898,0.46134 1.6185,1.35432 0.6286,0.89298 0.7291,1.98037 l 7.9509,86.01464 q 0.1561,1.68899 -0.9278,2.99367 -1.0839,1.30468 -2.7729,1.46084 -1.689,0.15606 -2.9938,-0.92782 -1.3047,-1.08394 -1.4608,-2.77288 z m -111.3253,-120.88812 -2.3588,65.64122 -4.0923,-0.14706 3.889,-1.28239 25.5233,77.40204 q 0.5312,1.61086 -0.2323,3.12549 -0.7634,1.51473 -2.3743,2.0459 -1.6109,0.53117 -3.1256,-0.23229 -1.5147,-0.76347 -2.0458,-2.37432 l -25.5233,-77.40205 q -0.114,-0.34541 -0.1652,-0.70563 -0.051,-0.36021 -0.038,-0.72382 l 2.3588,-65.64121 q 0.061,-1.69514 1.3026,-2.85071 1.2417,-1.15557 2.9368,-1.09458 1.6951,0.0609 2.8506,1.30258 1.1556,1.2417 1.0947,2.93683 z m -37.8235,53.21965 32.3898,8.30792 -1.0174,3.96659 -1.7134,-3.71935 52.3964,-24.13755 q 1.5405,-0.70973 3.1317,-0.12222 1.5912,0.58751 2.3009,2.12818 0.7097,1.54057 0.1222,3.13173 -0.5875,1.59127 -2.1281,2.30099 l -52.3963,24.13756 q -0.6412,0.29532 -1.3441,0.35896 -0.703,0.0637 -1.3867,-0.11172 l -32.3899,-8.30792 q -1.643,-0.42145 -2.5068,-1.88124 -0.8638,-1.45975 -0.4423,-3.10275 0.4214,-1.643 1.8812,-2.50678 1.4598,-0.86389 3.1028,-0.4424 z m 79.9239,-10.45369 -11.8165,-32.23583 3.8448,-1.40935 -0.965,3.97967 -38.2211,-9.26778 0.965,-3.97968 3.502,2.12248 -34.7485,57.3333 -3.502,-2.12249 3.773,-1.59171 31.2727,74.12935 -3.773,1.59171 1.6325,-3.75554 26.6404,11.58068 -1.6325,3.75553 -2.3769,-3.33459 24.3308,-17.34316 q 1.3812,-0.98461 3.0541,-0.70408 1.6728,0.28048 2.6574,1.66175 0.9845,1.38121 0.704,3.05405 -0.2805,1.67284 -1.6617,2.65745 l -24.3308,17.34316 q -0.8776,0.62555 -1.9494,0.73807 -1.0717,0.11253 -2.0601,-0.31712 l -26.6404,-11.58067 q -0.7237,-0.31457 -1.2787,-0.87564 -0.555,-0.56101 -0.8617,-1.28818 l -31.2727,-74.12934 q -0.3829,-0.90743 -0.3112,-1.88964 0.072,-0.98226 0.5822,-1.82456 l 34.7485,-57.33329 q 0.6939,-1.14482 1.9299,-1.65875 1.2361,-0.51392 2.5371,-0.19845 l 38.2211,9.26779 q 0.9966,0.24164 1.7617,0.92452 0.7651,0.68288 1.1181,1.6458 l 11.8166,32.23583 q 0.5837,1.59256 -0.1296,3.13148 -0.7133,1.53887 -2.3059,2.12268 -1.5926,0.58376 -3.1315,-0.12962 -1.5389,-0.71332 -2.1227,-2.30583 z m -112.0725,-12.58283 38.0147,12.03276 q 1.6171,0.51183 2.3987,2.01721 0.7815,1.50548 0.2697,3.12264 -0.5119,1.61705 -2.0173,2.39861 -1.5055,0.78156 -3.1226,0.26973 l -38.0147,-12.03276 q -1.6171,-0.51192 -2.3987,-2.01735 -0.7815,-1.50544 -0.2696,-3.12249 0.5118,-1.61716 2.0173,-2.39872 1.5054,-0.78155 3.1225,-0.26963 z m 0.6602,-26.6255 6.1589,85.1891 q 0.1223,1.69173 -0.9875,2.97452 -1.1098,1.28279 -2.8016,1.40511 -1.6918,0.12232 -2.9745,-0.98751 -1.2828,-1.10983 -1.4051,-2.80157 l -6.1589,-85.18909 q -0.1223,-1.69184 0.9875,-2.97462 1.1098,-1.28274 2.8016,-1.40501 1.6918,-0.12232 2.9745,0.98746 1.2828,1.10978 1.4051,2.80161 z m -31.5213,-15.99259 29.0581,12.52744 -1.6211,3.76043 -3.1765,-2.58437 31.6298,-38.8763 q 1.0704,-1.31578 2.7578,-1.48919 1.6873,-0.1734 3.0031,0.89708 1.3157,1.07044 1.4891,2.75773 0.1734,1.68734 -0.8971,3.00312 l -31.6298,38.8763 q -0.8671,1.06574 -2.2015,1.39286 -1.3344,0.32712 -2.5961,-0.2168 l -29.0581,-12.52744 q -1.5576,-0.67158 -2.1842,-2.24785 -0.6266,-1.57621 0.045,-3.13378 0.6715,-1.55767 2.2478,-2.18422 1.5762,-0.6266 3.1338,0.045 z m 73.173,106.68419 -39.692,-1.11383 q -1.2627,-0.0355 -2.286,-0.77606 -1.0233,-0.74057 -1.4516,-1.92893 l -35.217,-97.71653 q -0.3057,-0.84829 -0.2268,-1.74657 0.079,-0.89828 0.5277,-1.68034 l 26.955,-46.96148 q 0.8443,-1.47119 2.4816,-1.91433 1.6373,-0.44314 3.1084,0.4013 0.024,0.014 0.049,0.0283 0.024,0.0143 0.048,0.0289 l 33.733,20.61261 q 0.6495,0.39695 1.113,1.00071 0.4635,0.60375 0.6791,1.33377 l 19.2661,65.23827 q 0.4804,1.6267 -0.3302,3.11668 -0.8105,1.48999 -2.4373,1.97047 -1.6267,0.48039 -3.1167,-0.33022 -1.49,-0.8106 -1.9704,-2.4373 l -19.2661,-65.23827 3.9273,-1.15981 -2.1352,3.49429 -33.733,-20.61261 2.1352,-3.4943 3.5516,2.03851 -26.955,46.96147 -3.5515,-2.0385 3.8524,-1.38841 35.217,97.71653 -3.8524,1.38841 0.1149,-4.0934 39.692,1.11383 q 1.6955,0.0475 2.8608,1.28009 1.1652,1.2326 1.1177,2.92818 -0.048,1.69549 -1.2802,2.8608 -1.2326,1.16527 -2.9281,1.11773 z m -88.4919,-106.81576 29.6478,36.73708 q 1.0652,1.31993 0.8851,3.00656 -0.1801,1.68659 -1.5001,2.75193 -1.32,1.06524 -3.0066,0.88509 -1.6866,-0.18006 -2.7518,-1.50004 l -29.6478,-36.73707 q -1.0653,-1.32003 -0.8852,-3.00662 0.1801,-1.68669 1.5001,-2.75188 1.32,-1.06529 3.0066,-0.88518 1.6866,0.18011 2.7519,1.50013 z m -34.0389,-2.37342 30.9615,0.85174 -0.1126,4.09345 -3.814,-1.49073 15.2334,-38.97458 q 0.6174,-1.57987 2.1712,-2.26035 1.5537,-0.68048 3.1335,-0.0629 1.5798,0.61745 2.2603,2.17117 0.6805,1.55372 0.063,3.13358 l -15.2334,38.97458 q -0.4716,1.20676 -1.5515,1.92258 -1.08,0.71583 -2.3751,0.68013 l -30.9615,-0.85174 q -1.6956,-0.0467 -2.8615,-1.27863 -1.166,-1.2319 -1.1193,-2.92744 0.047,-1.69564 1.2785,-2.86155 1.232,-1.16597 2.9275,-1.11928 z m 48.8806,-5.10395 -6.778,-27.96067 3.9797,-0.96477 -0.2807,4.08536 -44.1113,-3.03031 0.2807,-4.08536 4.0897,0.20705 -2.0835,41.1531 -4.0898,-0.20705 3.1009,-2.67459 30.9517,35.88528 -3.1009,2.6746 0.2348,-4.08825 29.6609,1.70353 q 1.6934,0.0972 2.822,1.36337 1.1287,1.26619 1.0314,2.95967 -0.097,1.69339 -1.3634,2.82201 -1.2662,1.12863 -2.9596,1.03145 l -29.6609,-1.70353 q -0.8306,-0.0477 -1.5767,-0.4157 -0.7461,-0.36796 -1.2894,-0.99796 l -30.9517,-35.88528 q -0.516,-0.59825 -0.7724,-1.34547 -0.2564,-0.74722 -0.2164,-1.53618 l 2.0835,-41.15309 q 9e-4,-0.0184 0,-0.0369 0,-0.0183 0,-0.0367 0.1162,-1.69228 1.395,-2.80661 1.2788,-1.11443 2.971,-0.99811 l 44.1114,3.03031 q 1.3361,0.0918 2.3598,0.95542 1.0237,0.86354 1.3392,2.16517 l 6.7781,27.96067 q 0.3996,1.64845 -0.4835,3.09659 -0.8831,1.44825 -2.5315,1.8479 -1.6485,0.39956 -3.0967,-0.48348 -1.4482,-0.88308 -1.8478,-2.53148 z m -62.8189,-65.12064 28.914,-38.58473 q 0.6505,-0.86814 1.6455,-1.30028 0.995,-0.43225 2.0735,-0.31512 l 47.276,5.13349 q 1.6863,0.18306 2.7492,1.50493 1.0629,1.32188 0.8798,3.00817 -0.1831,1.68629 -1.505,2.74918 -1.3218,1.06289 -3.0081,0.87983 l -47.276,-5.13349 0.4421,-4.07106 3.277,2.45565 -28.914,38.58473 q -1.0172,1.35736 -2.6962,1.59791 -1.6791,0.24054 -3.0365,-0.77656 -1.3573,-1.01721 -1.5979,-2.69625 -0.2406,-1.67904 0.7766,-3.0364 z m 12.8953,-90.39107 23.0467,52.61909 q 0.088,0.20185 0.1546,0.4121 0.066,0.21025 0.1096,0.4264 l 14.303,71.39386 q 0.3332,1.66309 -0.6072,3.07475 -0.9405,1.41165 -2.6036,1.74487 -1.6632,0.33317 -3.0748,-0.60725 -1.4116,-0.94047 -1.7448,-2.60356 l -14.303,-71.39387 4.0152,-0.8044 -3.751,1.6429 -23.0467,-52.6191 q -0.6805,-1.55377 -0.063,-3.13358 0.6174,-1.57982 2.1711,-2.2603 1.5537,-0.68053 3.1335,-0.0631 1.5799,0.61745 2.2604,2.17117 z m 7.7473,126.38222 -30.5455,-45.97537 q -0.4523,-0.68083 -0.6086,-1.48313 -0.1563,-0.80226 0.01,-1.60306 l 15.6364,-76.49462 q 0.3397,-1.66184 1.755,-2.59676 1.4153,-0.93487 3.0771,-0.59516 0.1162,0.0238 0.2308,0.0542 0.1147,0.0304 0.2274,0.0674 l 62.7157,20.60602 q 1.0467,0.34392 1.7795,1.16662 0.7329,0.82269 0.954,1.90213 l 20.1998,98.62396 q 0.3403,1.66164 -0.594,3.0773 -0.9344,1.41565 -2.5961,1.75607 -1.6617,0.34032 -3.0774,-0.59406 -1.4156,-0.93437 -1.756,-2.59601 l -20.1998,-98.62396 4.0117,-0.82165 -1.2782,3.8904 -62.7157,-20.60602 1.2782,-3.8904 4.012,0.8201 -15.6363,76.49462 -4.012,-0.8201 3.4108,-2.2661 30.5454,45.97537 q 0.9387,1.41281 0.6034,3.0755 -0.3353,1.66274 -1.7481,2.60141 -1.4128,0.93863 -3.0756,0.60336 -1.6627,-0.33527 -2.6013,-1.74808 z m 28.2522,-154.69361 28.9795,30.19488 q 0.5947,0.61964 0.8904,1.42615 0.2956,0.80645 0.2422,1.66379 l -1.5495,24.89107 q -0.1054,1.69289 -1.377,2.81546 -1.2716,1.12253 -2.9646,1.0172 -1.6929,-0.10542 -2.8155,-1.37701 -1.1225,-1.27159 -1.0171,-2.96453 l 1.5495,-24.89107 4.0871,0.25444 -2.9544,2.83551 -28.9795,-30.19487 q -1.1745,-1.22381 -1.1397,-2.91964 0.035,-1.69584 1.2586,-2.8703 1.2238,-1.17451 2.9196,-1.13972 1.6959,0.0349 2.8704,1.25864 z m 32.3433,100.42492 14.0573,-5.99508 1.6064,3.76672 -3.9327,-1.14157 27.0434,-93.16289 3.9326,1.14157 -3.0467,2.73613 -30.0966,-33.51346 3.0467,-2.73613 2.2405,3.42771 -47.9082,31.3153 -2.2405,-3.42771 4.0917,-0.16476 1.5725,39.05646 q 0.068,1.69483 -1.082,2.94148 -1.1502,1.2467 -2.845,1.31498 -1.6948,0.0682 -2.9415,-1.08199 -1.2467,-1.15012 -1.3149,-2.84495 l -1.5725,-39.05646 q -0.043,-1.07984 0.4516,-2.0405 0.495,-0.96072 1.3996,-1.55197 l 47.9082,-31.31531 q 1.2687,-0.82929 2.7717,-0.63269 1.5029,0.1966 2.5156,1.32428 l 30.0966,33.51346 q 0.709,0.78956 0.9454,1.82405 0.2363,1.0345 -0.06,2.05365 l -27.0434,93.1629 q -0.2568,0.88473 -0.8678,1.57426 -0.611,0.68948 -1.4584,1.05089 l -14.0573,5.99509 q -1.5603,0.66534 -3.134,0.0326 -1.5738,-0.63274 -2.2392,-2.19296 -0.6654,-1.56027 -0.033,-3.13404 0.6327,-1.57376 2.193,-2.2391 z m 44.7376,-91.83182 -49.0254,27.99341 q -1.473,0.84105 -3.1093,0.39421 -1.6362,-0.44679 -2.4773,-1.91978 -0.8411,-1.47304 -0.3943,-3.10929 0.4469,-1.63635 1.9199,-2.4774 l 49.0253,-27.99341 q 1.473,-0.84115 3.1093,-0.39425 1.6363,0.44679 2.4774,1.91983 0.841,1.47294 0.3942,3.10929 -0.4469,1.6363 -1.9198,2.47739 z m -95.0894,-47.62137 26.0966,34.29643 q 1.0272,1.34982 0.799,3.03061 -0.2283,1.68079 -1.5781,2.70794 -1.3499,1.02709 -3.0307,0.7989 -1.6808,-0.22824 -2.7079,-1.57806 l -26.0966,-34.29643 q -1.0271,-1.34992 -0.7989,-3.03066 0.2282,-1.68079 1.5781,-2.70789 1.3498,-1.02714 3.0306,-0.7989 1.6808,0.22819 2.7079,1.57806 z m -40.1541,-11.48804 37.9427,10.00491 -1.0441,3.95963 -2.1935,-3.45801 48.0524,-30.4799 q 1.4323,-0.90858 3.0876,-0.53817 1.6553,0.37036 2.5639,1.80274 0.9085,1.43232 0.5381,3.08757 -0.3704,1.65529 -1.8027,2.56387 l -48.0524,30.4799 q -0.7218,0.45779 -1.5664,0.58871 -0.8446,0.13087 -1.6711,-0.0871 l -37.9427,-10.00485 q -1.6401,-0.4325 -2.4941,-1.89809 -0.8539,-1.46554 -0.4214,-3.10567 0.4325,-1.64017 1.898,-2.49411 1.4656,-0.85394 3.1057,-0.42145 z m 28.1265,86.44753 -32.9631,-80.9434 q -0.3799,-0.93277 -0.2838,-1.93533 0.096,-1.00255 0.6463,-1.84612 l 36.855,-56.511 q 0.9266,-1.42077 2.5864,-1.77021 1.6598,-0.34942 3.0806,0.57718 0.047,0.0307 0.093,0.0626 0.046,0.0319 0.091,0.0652 l 49.14,36.036 q 0.8474,0.6215 1.2909,1.57427 0.4435,0.95276 0.3733,2.00133 l -3.5283,52.7305 q -0.1132,1.69238 -1.39,2.80906 -1.2768,1.11663 -2.9692,1.00341 -1.6924,-0.11328 -2.8091,-1.39006 -1.1166,-1.27679 -1.0034,-2.96918 l 3.5283,-52.73049 4.0858,0.27338 -2.4216,3.30222 -49.14,-36.036 2.4216,-3.30222 3.43,2.23698 -36.8549,56.511 -3.4301,-2.23698 3.7926,-1.54447 32.9631,80.9434 q 0.6398,1.57092 -0.019,3.13408 -0.6584,1.56317 -2.2294,2.20297 -1.5709,0.63969 -3.1341,-0.0187 -1.5632,-0.65844 -2.2029,-2.22936 z m 111.0441,-165.08935 -10.0573,57.91313 q -0.2903,1.6712 -1.6772,2.64766 -1.3869,0.97651 -3.0581,0.6863 -1.6712,-0.29025 -2.6477,-1.67716 -0.9765,-1.38694 -0.6863,-3.0581 l 10.0574,-57.91313 q 0.2902,-1.67122 1.6771,-2.64773 1.3869,-0.97646 3.0581,-0.68623 1.6712,0.2902 2.6477,1.67711 0.9765,1.38694 0.6863,3.05815 z m -18.0429,-29.08891 17.4185,26.11954 -3.4069,2.272 0.2656,-4.08638 34.1687,2.22113 q 1.6926,0.11 2.8117,1.38469 1.119,1.27469 1.009,2.96732 -0.11,1.69261 -1.3847,2.81169 -1.2747,1.11905 -2.9673,1.00905 l -34.1687,-2.22113 q -0.9543,-0.062 -1.7825,-0.54037 -0.8281,-0.47833 -1.3588,-1.27401 l -17.4185,-26.11954 q -0.9411,-1.41121 -0.6086,-3.07453 0.3324,-1.66332 1.7436,-2.60439 1.4111,-0.94112 3.0744,-0.6087 1.6634,0.33242 2.6045,1.74363 z m -69.8969,-21.05516 29.4381,33.82469 q 1.1135,1.27948 0.9962,2.9716 -0.1173,1.69216 -1.3968,2.80574 -1.2795,1.11352 -2.9716,0.9962 -1.6922,-0.11732 -2.8057,-1.39681 L 1144.067,266.3646 q -1.1135,-1.27952 -0.9962,-2.97165 0.1173,-1.69217 1.3968,-2.80569 1.2795,-1.11358 2.9717,-0.99626 1.6921,0.11735 2.8057,1.39686 z m 11.84,98.51146 10.4701,-62.67314 q 0.1063,-0.63595 0.4028,-1.20851 0.2965,-0.57253 0.7547,-1.02629 l 42.588,-42.1785 q 1.2051,-1.19361 2.9013,-1.18541 1.6962,0.008 2.8898,1.2134 1.1936,1.20518 1.1854,2.90137 -0.01,1.69616 -1.2134,2.88977 l -42.588,42.17849 -2.8816,-2.90956 4.0391,0.67476 -10.4701,62.67314 q -0.2795,1.67297 -1.6602,2.65838 -1.3806,0.98536 -3.0536,0.70587 -1.6731,-0.27953 -2.6584,-1.66014 -0.9854,-1.38066 -0.7059,-3.05363 z m 52.7572,-78.82057 36.8484,-19.1646 q 1.5048,-0.78268 3.1224,-0.27203 1.6175,0.51065 2.4001,2.01553 0.085,0.16239 0.1541,0.33165 0.07,0.16928 0.1239,0.34411 l 14.742,47.502 q 0.3009,0.96959 0.1141,1.96747 -0.1869,0.99786 -0.8182,1.79289 l -44.226,55.69199 q -0.847,1.06659 -2.1642,1.41341 -1.3171,0.34681 -2.5796,-0.16436 l -13.9885,-5.66419 q -1.5722,-0.63662 -2.2338,-2.19849 -0.6616,-1.56192 -0.025,-3.13409 0.6366,-1.57224 2.1985,-2.2338 1.5618,-0.66156 3.134,-0.0249 l 13.9886,5.66419 -1.537,3.79565 -3.2068,-2.5466 44.226,-55.692 3.2068,2.5466 -3.911,1.21376 -14.742,-47.502 3.911,-1.21375 1.8895,3.63301 -36.8484,19.16459 q -1.5049,0.78264 -3.1224,0.27199 -1.6175,-0.51068 -2.4001,-2.01549 -0.7827,-1.50485 -0.2721,-3.12236 0.5107,-1.6175 2.0156,-2.40016 z m -68.9541,68.50409 -15.253,-66.13587 q -0.1922,-0.833 -0.035,-1.67329 0.1573,-0.8403 0.6375,-1.54755 l 33.7756,-49.73622 q 0.8387,-1.2351 2.2756,-1.64055 1.4369,-0.40545 2.7975,0.20905 l 50.778,22.93199 q 1.1862,0.53567 1.8454,1.65785 0.6592,1.12217 0.5496,2.41903 l -9.828,116.298 q -0.087,1.02794 -0.6504,1.89203 -0.5635,0.86412 -1.4691,1.35812 l -26.2342,14.30958 q -1.4891,0.8122 -3.1164,0.33357 -1.6273,-0.47858 -2.4395,-1.96764 -0.8122,-1.48912 -0.3336,-3.11637 0.4786,-1.6273 1.9677,-2.4395 l 26.2342,-14.30958 1.9609,3.59497 -4.0805,-0.34482 9.828,-116.29799 4.0805,0.34482 -1.6855,3.73206 -50.778,-22.932 1.6855,-3.73206 3.3877,2.30056 -33.7756,49.73623 -3.3877,-2.30057 3.9903,-0.92027 15.253,66.13587 q 0.3812,1.6528 -0.518,3.09107 -0.8992,1.43825 -2.552,1.81946 -1.6528,0.38115 -3.0911,-0.51803 -1.4382,-0.89918 -1.8194,-2.55195 z m 91.7593,-131.60705 -5.7592,61.35946 q -0.1585,1.68876 -1.4648,2.7708 -1.3062,1.08208 -2.995,0.9236 -1.6888,-0.15854 -2.7708,-1.46477 -1.0821,-1.30623 -0.9236,-2.99499 l 5.7593,-61.35947 q 0.1584,-1.68881 1.4647,-2.77084 1.3062,-1.08209 2.995,-0.92355 1.6888,0.15848 2.7708,1.46471 1.0821,1.30624 0.9236,2.99505 z m -39.6618,-24.42136 37.543,20.44223 -1.9583,3.59642 -2.5451,-3.20804 40.8223,-32.38653 q 1.3287,-1.05423 3.0138,-0.86005 1.6851,0.19415 2.7393,1.52298 1.0542,1.3288 0.86,3.01385 -0.1941,1.68505 -1.5229,2.73929 l -40.8223,32.38654 q -0.9654,0.76597 -2.1932,0.87186 -1.2278,0.10588 -2.3101,-0.48348 l -37.543,-20.44223 q -1.4897,-0.81115 -1.9695,-2.43808 -0.4798,-1.62693 0.3314,-3.11661 0.8111,-1.48969 2.438,-1.9695 1.6269,-0.4798 3.1166,0.33135 z m 5.3549,57.67983 -11.3186,-53.22844 q -0.176,-0.82798 -0.01,-1.65792 0.1667,-0.82993 0.6487,-1.52578 l 32.0229,-46.22435 q 0.9659,-1.39432 2.6349,-1.69721 1.6689,-0.30291 3.0632,0.66303 0.026,0.0181 0.052,0.0366 0.026,0.0185 0.051,0.0374 l 46.3423,34.28006 q 0.9513,0.70368 1.3807,1.80628 0.4293,1.10261 0.2044,2.26429 l -17.5757,90.77794 q -0.3225,1.66527 -1.728,2.61481 -1.4055,0.94954 -3.0708,0.62715 -1.6653,-0.32245 -2.6148,-1.72796 -0.9496,-1.4055 -0.6271,-3.07077 l 17.5757,-90.77794 4.0203,0.77838 -2.4352,3.29219 -46.3423,-34.28007 2.4353,-3.29218 3.3661,2.33197 -32.0229,46.22437 -3.3661,-2.33198 4.0054,-0.85172 11.3186,53.22845 q 0.3528,1.65909 -0.5709,3.08172 -0.9237,1.42263 -2.5828,1.77544 -1.6592,0.35279 -3.0818,-0.57093 -1.4226,-0.9237 -1.7754,-2.5828 z m 132.3043,-58.28114 -37.2382,-20.85173 2.0007,-3.57297 4.0882,0.23581 -4.6519,80.64528 q -0.098,1.69336 -1.3642,2.82171 -1.2665,1.12835 -2.9599,1.03067 -1.6934,-0.0977 -2.8217,-1.36416 -1.1283,-1.26649 -1.0306,-2.95986 l 4.6519,-80.64527 q 0.027,-0.46481 0.1573,-0.91175 0.1304,-0.44692 0.3579,-0.85315 0.8287,-1.47998 2.4612,-1.9405 1.6325,-0.4605 3.1125,0.36824 l 37.2383,20.85173 q 1.4799,0.82871 1.9404,2.4612 0.4605,1.6325 -0.3682,3.11249 -0.8287,1.47996 -2.4612,1.94047 -1.6325,0.46049 -3.1125,-0.36821 z m -64.6254,-28.3165 29.3595,-0.20312 0.028,4.0949 -3.6327,-1.89018 22.4668,-43.17768 q 0.7829,-1.5047 2.4006,-2.01506 1.6176,-0.51036 3.1223,0.2726 1.5046,0.78293 2.015,2.40053 0.5104,1.61761 -0.2726,3.1223 l -22.4668,43.17768 q -0.5252,1.00939 -1.4958,1.60312 -0.9707,0.59373 -2.1085,0.60159 l -29.3595,0.20312 q -1.6962,0.0117 -2.9039,-1.17934 -1.2076,-1.19107 -1.2193,-2.88723 -0.012,-1.69618 1.1793,-2.90383 1.1911,-1.20768 2.8872,-1.2194 z m 3.264,42.37525 -0.5569,24.78294 -4.094,-0.092 2.2767,-3.40382 26.126,17.47418 -2.2766,3.40382 -1.9223,-3.61577 32.3505,-17.19899 1.9223,3.61576 -3.996,-0.89468 19.7149,-88.0556 3.9961,0.89469 -2.7792,3.0075 -36.855,-34.05729 2.7792,-3.0075 2.272,3.40689 -39.1809,26.12938 -2.2721,-3.40689 4.094,0.0923 -1.0483,46.51593 q -0.038,1.69576 -1.2644,2.86782 -1.2261,1.17208 -2.9218,1.13388 -1.6958,-0.0382 -2.8679,-1.26435 -1.1721,-1.22612 -1.1338,-2.92188 l 1.0483,-46.51593 q 0.023,-1.00198 0.5053,-1.88028 0.4828,-0.87828 1.3166,-1.43435 l 39.181,-26.12938 q 1.1804,-0.78718 2.5948,-0.67534 1.4144,0.11182 2.4564,1.07473 l 36.855,34.0573 q 0.8041,0.7431 1.1301,1.78841 0.326,1.0453 0.087,2.11379 l -19.715,88.05557 q -0.1958,0.87464 -0.7391,1.58752 -0.5433,0.71285 -1.3347,1.13357 l -32.3505,17.199 q -0.9989,0.53104 -2.1287,0.47401 -1.1298,-0.057 -2.0702,-0.68596 l -26.1261,-17.47418 q -0.8725,-0.58361 -1.3567,-1.51498 -0.4842,-0.93137 -0.4606,-1.98084 l 0.5569,-24.78295 q 0.038,-1.69581 1.2641,-2.86795 1.2261,-1.17214 2.9219,-1.13402 1.6957,0.0381 2.8678,1.26414 1.1722,1.22602 1.1341,2.92184 z m 86.0361,-24.3404 -11.8755,44.22599 q -0.4399,1.63817 -1.9093,2.48549 -1.4694,0.84732 -3.1075,0.40745 -1.6382,-0.43989 -2.4856,-1.90931 -0.8473,-1.46939 -0.4074,-3.10756 l 11.8755,-44.22599 q 0.4399,-1.63818 1.9093,-2.4855 1.4694,-0.84732 3.1076,-0.40743 1.6381,0.43987 2.4855,1.90926 0.8473,1.46942 0.4074,3.1076 z m -25.8531,29.47364 12.6454,10.54545 -2.6227,3.14493 -1.896,-3.62959 27.4365,-14.33249 1.896,3.62958 -3.6964,-1.76224 16.7895,-35.217 3.6964,1.76225 -3.9443,1.10073 -9.828,-35.217 3.9443,-1.10073 1.5813,3.77738 -33.5724,14.05404 -1.5813,-3.77738 3.7793,-1.57669 11.0499,26.48646 -3.7793,1.57669 -0.6649,-4.04067 32.3505,-5.3235 q 1.6737,-0.27543 3.0519,0.7133 1.3783,0.98875 1.6537,2.66245 0.2754,1.67369 -0.7134,3.05191 -0.9887,1.37824 -2.6624,1.65367 l -32.3505,5.3235 q -1.4051,0.23122 -2.6505,-0.45926 -1.2454,-0.69049 -1.7937,-2.00471 l -11.0499,-26.48646 q -0.6525,-1.56409 -0.01,-3.13186 0.6436,-1.56777 2.2069,-2.22221 l 33.5724,-14.05404 q 0.1175,-0.0491 0.2377,-0.0909 0.1203,-0.0418 0.2429,-0.076 1.6337,-0.45594 3.1114,0.37691 1.4777,0.83286 1.9336,2.46665 l 9.828,35.21699 q 0.1995,0.71471 0.1355,1.45395 -0.064,0.73924 -0.3834,1.40903 l -16.7895,35.217 q -0.2864,0.60083 -0.7483,1.08001 -0.462,0.47918 -1.052,0.78733 l -27.4365,14.3325 q -1.0994,0.57434 -2.3328,0.44207 -1.2333,-0.13229 -2.186,-0.92673 L 1329.22,218.03499 q -1.3027,-1.08636 -1.4557,-2.77568 -0.153,-1.68928 0.9334,-2.99194 1.0864,-1.30268 2.7757,-1.45565 1.6892,-0.15296 2.9919,0.9334 z m 50.289,-100.80493 30.1916,78.2964 q 0.6103,1.58262 -0.077,3.13321 -0.6875,1.55063 -2.2701,2.1609 -1.5827,0.61025 -3.1333,-0.0773 -1.5506,-0.68756 -2.1608,-2.27017 l -30.1916,-78.2964 q -0.6103,-1.58263 0.077,-3.13324 0.6876,-1.5506 2.2702,-2.16086 1.5826,-0.61026 3.1332,0.0773 1.5506,0.68756 2.1609,2.27018 z M 1341.5347,97.88 l 40.4357,10.57166 -1.0358,3.96183 -2.6697,-3.10513 33.1728,-28.520853 q 1.2862,-1.105824 2.9776,-0.978293 1.6914,0.127544 2.7972,1.41373 1.1058,1.286186 0.9783,2.977585 -0.1275,1.691399 -1.4137,2.797229 l -33.1728,28.520862 q -0.7647,0.65746 -1.7473,0.88463 -0.9825,0.22717 -1.9582,-0.0279 l -40.4356,-10.57166 q -1.6411,-0.42904 -2.4981,-1.89281 -0.8571,-1.46378 -0.428,-3.10481 0.429,-1.641054 1.8928,-2.498069 1.4638,-0.857016 3.1048,-0.427971 z m 16.1655,51.78638 -20.9304,-46.13264 q -0.4392,-0.96811 -0.3521,-2.02764 0.087,-1.05953 0.6787,-1.942861 l 28.3931,-42.397994 q 0.8815,-1.316178 2.4192,-1.696585 1.5377,-0.380395 2.9311,0.373046 l 45.2153,24.448791 q 0.8497,0.45945 1.4045,1.250194 0.5548,0.790757 0.6977,1.746099 l 12.8485,85.89016 q 0.1222,0.81684 -0.082,1.61719 -0.2039,0.80033 -0.7022,1.45904 l -15.8297,20.92709 q -0.6298,0.8327 -1.5815,1.26214 -0.9517,0.42945 -1.9928,0.35084 l -28.4553,-2.14905 q -1.6914,-0.12777 -2.797,-1.41408 -1.1057,-1.28631 -0.978,-2.97769 0.1278,-1.69139 1.4141,-2.79707 1.2863,-1.10566 2.9777,-0.9779 l 28.4553,2.14904 -0.3084,4.08337 -3.2659,-2.47039 15.8297,-20.92709 3.2659,2.4704 -4.05,0.60584 -12.8484,-85.890161 4.0499,-0.60584 -1.9478,3.602133 -45.2153,-24.448791 1.9477,-3.602132 3.4025,2.278593 -28.393,42.397998 -3.4026,-2.2786 3.7292,-1.69191 20.9303,46.13263 q 0.7008,1.54465 0.1041,3.13244 -0.5966,1.58778 -2.1413,2.28861 -1.5447,0.70081 -3.1325,0.10411 -1.5877,-0.59669 -2.2885,-2.14133 z m 95.6782,-47.63507 11.466,83.9475 q 0.2296,1.68059 -0.7965,3.03126 -1.026,1.35069 -2.7066,1.58023 -1.6806,0.22955 -3.0313,-0.79653 -1.3506,-1.02602 -1.5802,-2.70661 l -11.466,-83.94749 q -0.2295,-1.68062 0.7965,-3.0313 1.0261,-1.350684 2.7067,-1.580216 1.6805,-0.229556 3.0312,0.796493 1.3507,1.026053 1.5802,2.706663 z m -27.9387,-38.753439 27.1777,36.871379 -3.2963,2.42969 -2.0169,-3.563855 53.805,-30.450412 q 1.4762,-0.835446 3.1108,-0.382369 1.6345,0.45309 2.47,1.929292 0.8353,1.476189 0.3823,3.110758 -0.4531,1.63457 -1.9293,2.470016 l -53.805,30.45042 q -1.3522,0.76529 -2.8718,0.44093 -1.5195,-0.32437 -2.4414,-1.57509 l -27.1777,-36.871383 q -1.0064,-1.365379 -0.7527,-3.042489 0.2539,-1.677102 1.6193,-2.683507 1.3654,-1.006416 3.0425,-0.752591 1.677,0.253832 2.6835,1.619211 z m 68.0761,62.718199 5.5397,-54.280048 4.0739,0.415768 -3.1605,2.603976 -36.8844,-44.76654 3.1604,-2.603973 2.6871,3.090035 -44.095,38.345578 -2.6871,-3.090033 4.0907,-0.189035 4.8091,104.068682 -4.0906,0.18903 1.8169,-3.66983 33.8313,16.75019 -1.817,3.66983 -1.7836,-3.68615 25.389,-12.285 q 1.5268,-0.73882 3.1289,-0.18158 1.602,0.55724 2.3409,2.0841 0.7387,1.52684 0.1815,3.1289 -0.5572,1.60206 -2.0841,2.34088 l -25.389,12.285 q -0.8537,0.41309 -1.8021,0.4088 -0.9484,-0.004 -1.7984,-0.42513 l -33.8313,-16.75018 q -1.0007,-0.49548 -1.6114,-1.4304 -0.6107,-0.9349 -0.6623,-2.0504 l -4.8091,-104.068672 q -0.043,-0.937546 0.3259,-1.800379 0.3693,-0.862827 1.0776,-1.478689 l 44.0949,-38.345583 q 0.021,-0.01788 0.041,-0.03548 0.021,-0.0176 0.042,-0.03492 1.3091,-1.078602 2.9974,-0.91562 1.6884,0.162982 2.767,1.472078 l 36.8845,44.766537 q 0.5216,0.633133 0.7592,1.418366 0.2375,0.785233 0.1542,1.601378 l -5.5397,54.280034 q -0.1722,1.68743 -1.4872,2.75887 -1.315,1.07142 -3.0024,0.89921 -1.6875,-0.17222 -2.7589,-1.4872 -1.0714,-1.31497 -0.8992,-3.0024 z m 19.5576,22.64402 9.7265,37.24813 q 0.4285,1.64116 -0.4289,3.10467 -0.8575,1.46352 -2.4987,1.89209 -1.6412,0.42855 -3.1047,-0.42892 -1.4635,-0.85746 -1.892,-2.49861 l -9.7264,-37.24814 q -0.4286,-1.64119 0.4289,-3.10471 0.8574,-1.46351 2.4986,-1.89205 1.6412,-0.42855 3.1047,0.4289 1.4634,0.85745 1.892,2.49864 z m -19.7352,-22.97263 18.837,21.294 -3.0672,2.71324 -0.1077,-4.09359 31.122,-0.819 q 1.6956,-0.0446 2.9261,1.1228 1.2306,1.16743 1.2752,2.86306 0.045,1.69562 -1.1229,2.92615 -1.1674,1.23054 -2.863,1.27517 l -31.122,0.819 q -0.9077,0.0239 -1.7405,-0.3382 -0.8327,-0.36205 -1.4343,-1.04215 l -18.837,-21.294 q -1.1239,-1.27047 -1.0203,-2.96349 0.1037,-1.69304 1.3742,-2.81689 1.2704,-1.12386 2.9635,-1.02021 1.6929,0.10365 2.8169,1.37411 z m -5.6803,44.75974 32.6617,12.67813 -1.4819,3.8175 -3.5699,-2.00616 21.3923,-38.06712 3.5699,2.00616 -3.9901,0.9208 -7.371,-31.941 3.9901,-0.9208 1.0646,3.9542 -42.588,11.466 -1.0646,-3.9542 4.0788,0.36418 -4.095,45.86398 -4.0788,-0.36417 z m -2.9637,7.63499 q -1.2752,-0.495 -1.9969,-1.65708 -0.7217,-1.16208 -0.6,-2.52459 l 4.095,-45.86398 q 0.1145,-1.2827 0.9425,-2.26896 0.8281,-0.98627 2.0716,-1.32106 l 42.588,-11.466 q 0.036,-0.01 0.072,-0.0186 0.036,-0.009 0.072,-0.0173 1.6527,-0.38141 3.0911,0.51757 1.4384,0.89899 1.8198,2.55176 l 7.371,31.941 q 0.1721,0.74547 0.063,1.50275 -0.1088,0.75727 -0.4836,1.42421 l -21.3922,38.06711 q -0.749,1.3326 -2.1879,1.84855 -1.4388,0.51593 -2.8639,-0.0372 z m 61.5312,-48.79843 45.4447,48.95327 q 1.154,1.24309 1.091,2.93813 -0.063,1.69503 -1.3061,2.84908 -1.2432,1.15399 -2.9382,1.09101 -1.6951,-0.063 -2.849,-1.30611 l -45.4447,-48.95327 q -1.1541,-1.24313 -1.091,-2.93817 0.063,-1.69502 1.3061,-2.84904 1.2431,-1.15403 2.9381,-1.09103 1.6951,0.063 2.8491,1.30613 z m 13.6823,-25.6951 -17.389,40.50446 q -0.6692,1.55863 -2.2444,2.1876 -1.5753,0.62897 -3.1339,-0.0402 -1.5587,-0.66914 -2.1877,-2.24443 -0.6289,-1.57528 0.04,-3.13391 l 17.389,-40.50446 q 0.6692,-1.558644 2.2444,-2.187616 1.5753,-0.628971 3.134,0.04018 1.5585,0.669136 2.1875,2.244416 0.629,1.57529 -0.04,3.13393 z m -28.1936,-32.901 27.3809,28.442227 -2.9502,2.840033 -1.4504,-3.829554 57.7985,-21.890221 q 1.5863,-0.600772 3.1327,0.09607 1.5465,0.696842 2.1473,2.283099 0.6007,1.586243 -0.096,3.132703 -0.6968,1.546447 -2.283,2.147226 l -57.7985,21.890227 q -1.1495,0.43537 -2.3488,0.16569 -1.1992,-0.26966 -2.0517,-1.15521 l -27.3808,-28.442228 q -1.1764,-1.221989 -1.1442,-2.917887 0.032,-1.695892 1.2543,-2.872267 1.2219,-1.176382 2.9178,-1.144139 1.6959,0.03224 2.8723,1.254231 z m -6.6157,47.27239 -0.4259,-44.393075 q -0.01,-1.058523 0.4939,-1.989358 0.5042,-0.930847 1.3962,-1.500764 l 58.968,-37.673998 q 1.4293,-0.913221 3.0858,-0.548235 1.6565,0.36498 2.5698,1.794368 0.018,0.02896 0.036,0.05824 0.018,0.02926 0.035,0.05883 l 26.208,44.225997 q 0.4124,0.696105 0.5292,1.496791 0.1167,0.800686 -0.08,1.585619 l -6.7682,27.027005 q -0.412,1.64538 -1.8669,2.5175 -1.4548,0.87211 -3.1001,0.46007 -1.6455,-0.41205 -2.5176,-1.86688 -0.8721,-1.45483 -0.46,-3.10023 l 6.7682,-27.027004 3.9723,0.99477 -3.5229,2.08764 -26.208,-44.225997 3.5229,-2.087641 2.2047,3.450839 -58.968,37.673997 -2.2047,-3.450838 4.0948,-0.03928 0.4259,44.393064 q 0.016,1.69611 -1.1716,2.90696 -1.1878,1.21086 -2.8839,1.22714 -1.6962,0.0163 -2.907,-1.17156 -1.2108,-1.18784 -1.2271,-2.88396 z m 77.1056,25.85294 -9.5659,38.2047 q -0.2725,1.0886 -1.062,1.88615 -0.7894,0.79756 -1.8752,1.08123 l -33.6903,8.80261 q -0.9305,0.24309 -1.8718,0.0466 -0.9414,-0.19646 -1.6969,-0.79144 l -26.1753,-20.6126 q -1.3326,-1.04942 -1.5329,-2.73375 -0.2003,-1.68434 0.8492,-3.01694 1.0493,-1.33261 2.7337,-1.53287 1.6843,-0.20025 3.017,0.84916 l 26.1752,20.61258 -2.5334,3.21721 -1.0352,-3.96199 33.6903,-8.8026 1.0352,3.96199 -3.9723,-0.99462 9.5659,-38.2047 q 0.4119,-1.64543 1.8667,-2.51759 1.4548,-0.87216 3.1003,-0.46016 1.6453,0.41197 2.5175,1.86677 0.8722,1.45479 0.4602,3.10022 z m 190.0812,502.63522 28.665,-43.407 q 0.9347,-1.41545 2.5965,-1.75537 1.6618,-0.33992 3.0773,0.59485 1.4153,0.93468 1.7552,2.59647 0.3399,1.66179 -0.5947,3.07725 l -28.665,43.407 q -0.9348,1.4154 -2.5966,1.75527 -1.6618,0.33991 -3.0771,-0.59476 -1.4155,-0.93472 -1.7554,-2.59656 -0.3399,-1.66175 0.5948,-3.07715 z m -18.953,-23.20588 25.0974,22.40782 q 0.4719,0.42125 0.7946,0.96527 0.3228,0.54396 0.4663,1.16001 l 7.5348,32.33411 q 0.3849,1.65189 -0.511,3.09219 -0.8959,1.4403 -2.5478,1.8253 -1.652,0.38491 -3.0922,-0.51097 -1.4404,-0.89588 -1.8253,-2.54778 l -7.5348,-32.3341 3.9882,-0.92937 -2.7273,3.05465 -25.0974,-22.40783 q -1.2654,-1.12972 -1.3613,-2.82321 -0.096,-1.69348 1.0339,-2.95872 1.1296,-1.26534 2.8231,-1.36122 1.6935,-0.0959 2.9588,1.03385 z m -10.9234,56.12474 16.8059,14.61098 -2.6868,3.09034 -2.107,-3.51134 56.0294,-33.62159 2.1071,3.51135 -4.055,0.57111 -8.19,-58.149 4.055,-0.57111 1.4898,3.81437 -53.7624,20.99917 -1.4899,-3.81437 3.8707,1.33682 -3.4136,9.88369 q -0.5538,1.60326 -2.0791,2.34538 -1.5252,0.74212 -3.1284,0.18845 -1.6033,-0.55376 -2.3455,-2.07899 -0.7421,-1.52523 -0.1883,-3.12849 l 3.4136,-9.88368 q 0.294,-0.85119 0.918,-1.50049 0.624,-0.64939 1.4628,-0.97706 l 53.7624,-20.99917 q 0.222,-0.0866 0.4525,-0.14696 0.2304,-0.0604 0.4662,-0.0936 1.6796,-0.23659 3.0345,0.78381 1.355,1.0204 1.5916,2.70004 l 8.19,58.149 q 0.172,1.22135 -0.3592,2.33458 -0.5312,1.11317 -1.5887,1.74787 l -56.0294,33.62159 q -1.1404,0.68433 -2.4653,0.56796 -1.3248,-0.11637 -2.3285,-0.98896 l -16.8059,-14.61098 q -1.2801,-1.11293 -1.3983,-2.80497 -0.1182,-1.69208 0.9947,-2.97212 1.1129,-1.28009 2.8049,-1.39826 1.6921,-0.11822 2.9722,0.99466 z m -2.7793,-55.62557 -32.2915,46.5061 -3.3637,-2.33558 4.0534,0.58215 -13.4447,93.61169 q -0.2412,1.67894 -1.5989,2.69559 -1.3578,1.01675 -3.0366,0.77566 -1.6791,-0.24119 -2.6958,-1.59886 -1.0167,-1.35777 -0.7755,-3.03671 l 13.4447,-93.61168 q 0.068,-0.47259 0.2427,-0.91693 0.1747,-0.44434 0.4471,-0.83649 l 32.2915,-46.50609 q 0.9673,-1.39336 2.6366,-1.69449 1.6693,-0.30108 3.0626,0.66639 1.3932,0.96741 1.6944,2.63665 0.3011,1.66925 -0.6663,3.0626 z m -75.1027,7.94251 41.9787,33.00899 -2.5312,3.21902 2.0061,-3.56993 34.3947,19.32838 q 1.4787,0.83094 1.9367,2.46419 0.4581,1.63316 -0.3729,3.11189 -0.831,1.47869 -2.4642,1.93668 -1.6332,0.45799 -3.1119,-0.37291 l -34.3947,-19.32838 q -0.1377,-0.0774 -0.2692,-0.16526 -0.1315,-0.0879 -0.2558,-0.18565 l -41.9786,-33.00899 q -1.3335,-1.04849 -1.5349,-2.73268 -0.2015,-1.68419 0.847,-3.01751 1.0484,-1.33343 2.7326,-1.53488 1.6842,-0.20145 3.0176,0.84704 z m -0.065,106.30754 28.439,20.19326 -2.3708,3.33889 -2.6444,-3.12674 35.2269,-29.79192 2.6443,3.12674 -3.9398,-1.11678 25.52,-90.03101 3.9398,1.11678 -3.2923,2.43515 -36.2981,-49.07446 3.2923,-2.43515 2.5541,3.20086 -52.9827,42.27678 -2.5541,-3.20087 4.095,0.0136 -0.1933,58.529 q -0.01,1.69613 -1.209,2.89164 -1.2034,1.19541 -2.8996,1.18981 -1.6963,-0.006 -2.8917,-1.209 -1.1954,-1.20336 -1.1897,-2.89954 l 0.1933,-58.52901 q 0,-0.93082 0.4082,-1.76882 0.4051,-0.83799 1.1327,-1.4185 l 52.9828,-42.27677 q 0.029,-0.0234 0.059,-0.0462 0.03,-0.0228 0.06,-0.0452 1.3637,-1.00865 3.0412,-0.75762 1.6775,0.25104 2.6862,1.61476 l 36.2981,49.07446 q 0.5657,0.76487 0.7363,1.70079 0.1706,0.93587 -0.089,1.85115 l -25.52,90.031 q -0.1667,0.58796 -0.4977,1.10163 -0.3311,0.51368 -0.7977,0.90833 l -35.2269,29.79193 q -1.0705,0.90532 -2.4712,0.96456 -1.4008,0.0593 -2.544,-0.75242 l -28.4389,-20.19326 q -1.3831,-0.98206 -1.6667,-2.65441 -0.2835,-1.67234 0.6986,-3.0553 0.982,-1.38301 2.6543,-1.66664 1.6724,-0.28353 3.0554,0.69858 z m 141.3945,-203.899 25.8345,13.69366 q 1.4987,0.79435 1.9966,2.41581 0.498,1.62145 -0.2963,3.12019 -0.7944,1.49863 -2.4159,1.99671 -1.6214,0.49798 -3.12,-0.29638 l -25.8345,-13.69365 q -1.4988,-0.79446 -1.9968,-2.41591 -0.498,-1.62146 0.2964,-3.12009 0.7944,-1.49874 2.4158,-1.99671 1.6215,-0.49803 3.1202,0.29637 z m 1.0238,-36.97387 -1.1007,26.81735 q -0.07,1.69474 -1.3172,2.84396 -1.2476,1.14917 -2.9423,1.07964 -1.6948,-0.0696 -2.844,-1.31718 -1.1492,-1.2476 -1.0796,-2.94233 l 1.1007,-26.81735 q 0.07,-1.69484 1.3171,-2.84401 1.2477,-1.14917 2.9425,-1.07958 1.6947,0.0696 2.8439,1.31712 1.1492,1.24755 1.0796,2.94238 z m -31.6651,-33.62113 30.4734,30.56178 -2.8998,2.8914 -1.0163,-3.96689 49.5494,-12.69449 q 1.6431,-0.421 3.1026,0.44319 1.4596,0.86419 1.8806,2.50738 0.4209,1.6431 -0.4432,3.10265 -0.8642,1.45954 -2.5073,1.88054 l -49.5495,12.6945 q -1.0529,0.26963 -2.1008,-0.0181 -1.048,-0.28778 -1.8153,-1.05734 l -30.4734,-30.56179 q -1.1977,-1.20115 -1.1952,-2.89739 0,-1.69618 1.2036,-2.89379 1.2011,-1.19771 2.8973,-1.19521 1.6962,0.002 2.8939,1.20361 z m -3.0673,40.41747 -3.905,-37.09743 q -0.1437,-1.36622 0.5654,-2.54273 0.7092,-1.17652 1.9845,-1.68734 l 59.3447,-23.77064 q 1.4861,-0.59541 2.9822,-0.0247 1.4958,0.57066 2.208,2.00471 l 20.6782,41.63798 q 0.3622,0.72932 0.4179,1.54162 0.056,0.81236 -0.2038,1.58417 l -33.9885,101.14649 q -0.3502,1.0422 -1.1754,1.76882 -0.8251,0.72662 -1.9032,0.94227 l -25.1269,5.02537 q -1.6633,0.33262 -3.0746,-0.60825 -1.4114,-0.94087 -1.744,-2.60411 -0.3327,-1.6633 0.6082,-3.07465 0.9408,-1.41131 2.6042,-1.74393 l 25.1269,-5.02537 0.8031,4.01547 -3.8818,-1.30438 33.9885,-101.14649 3.8818,1.30438 -3.6676,1.8214 -20.6782,-41.63798 3.6676,-1.8214 1.5227,3.80137 -59.3447,23.77064 -1.5227,-3.80137 4.0725,-0.42869 3.905,37.09743 q 0.1775,1.68684 -0.8897,3.00522 -1.0672,1.31838 -2.7541,1.49598 -1.6869,0.17751 -3.0053,-0.88973 -1.3184,-1.06724 -1.4959,-2.75408 z m -2.1359,54.83086 -5.828,64.20962 q -0.1533,1.68918 -1.4562,2.77532 -1.303,1.08603 -2.9922,0.93277 -1.6893,-0.15336 -2.7754,-1.45629 -1.086,-1.30293 -0.9327,-2.99212 l 5.828,-64.20962 q 0.1533,-1.68929 1.4562,-2.77537 1.303,-1.08608 2.9923,-0.93272 1.6892,0.15326 2.7752,1.45619 1.0861,1.30293 0.9328,2.99222 z m -43.823,-27.68089 41.7689,23.751 -2.0241,3.55973 -2.5095,-3.23596 40.131,-31.122 q 1.3403,-1.03954 3.0231,-0.82679 1.6828,0.21279 2.7224,1.55322 1.0393,1.34037 0.8266,3.02316 -0.2127,1.68284 -1.5531,2.72233 l -40.131,31.122 q -0.9803,0.76032 -2.2178,0.84869 -1.2374,0.0883 -2.3159,-0.52492 l -41.769,-23.751 q -1.4744,-0.83844 -1.9242,-2.47394 -0.4498,-1.6355 0.3887,-3.10994 0.8384,-1.47454 2.4739,-1.92428 1.6354,-0.44974 3.11,0.3887 z m 3.3187,87.16521 -9.4119,-83.14489 q -0.098,-0.86404 0.1639,-1.69329 0.2618,-0.82924 0.8379,-1.48053 l 37.674,-42.588 q 1.0831,-1.22415 2.7113,-1.36622 1.6283,-0.14206 2.9068,0.87604 l 44.226,35.217 q 0.9028,0.71897 1.2974,1.80351 0.3946,1.08458 0.1647,2.21555 l -17.0844,84.05562 q -0.3378,1.6622 -1.7522,2.59872 -1.4142,0.93642 -3.0764,0.5986 -1.6622,-0.33787 -2.5987,-1.75217 -0.9365,-1.41426 -0.5986,-3.07645 l 17.0843,-84.05562 4.013,0.81565 -2.5509,3.20342 -44.226,-35.217 2.5509,-3.20341 3.0671,2.71323 -37.674,42.588 -3.0671,-2.71324 4.069,-0.46058 9.412,83.14489 q 0.1907,1.68538 -0.8662,3.01211 -1.0569,1.32668 -2.7423,1.51748 -1.6855,0.19075 -3.0121,-0.86614 -1.3267,-1.05684 -1.5175,-2.74228 z m 81.1719,-202.07794 -2.7748,37.91644 q -0.1238,1.69164 -1.4076,2.80032 -1.2837,1.10868 -2.9753,0.98491 -1.6918,-0.12382 -2.8004,-1.40756 -1.1087,-1.28374 -0.9849,-2.97542 l 2.7748,-37.91644 q 0.1237,-1.69174 1.4075,-2.80042 1.2837,-1.10863 2.9755,-0.98481 1.6916,0.12377 2.8003,1.40756 1.1087,1.28369 0.9849,2.97542 z m -30.7309,-46.02223 30.0147,43.39387 -3.3679,2.32948 -1.7684,-3.69349 46.1523,-22.09663 q 1.5298,-0.7325 3.1296,-0.16863 1.5998,0.56386 2.3323,2.09376 0.7324,1.52988 0.1685,3.12961 -0.5638,1.59976 -2.0936,2.33228 l -46.1523,22.0966 q -1.3611,0.65159 -2.8195,0.26429 -1.4584,-0.38731 -2.3168,-1.6283 l -30.0147,-43.39388 q -0.9649,-1.39503 -0.6608,-3.06375 0.3041,-1.66872 1.6992,-2.63358 1.395,-0.96492 3.0637,-0.66082 1.6687,0.30415 2.6337,1.69919 z m -19.9973,0.0443 21.1302,47.44631 q 0.69,1.54947 0.082,3.13304 -0.6077,1.58361 -2.1571,2.27369 -1.5496,0.69003 -3.1332,0.0823 -1.5835,-0.6077 -2.2736,-2.15717 l -21.1302,-47.44626 q -0.69,-1.54952 -0.082,-3.13314 0.6078,-1.58358 2.1573,-2.27364 1.5494,-0.69008 3.133,-0.0824 1.5836,0.6077 2.2737,2.15722 z m -45.7414,-1.56659 41.9164,-0.86159 0.084,4.09413 -3.5898,-1.97035 23.7117,-43.2006 q 0.8161,-1.48696 2.4447,-1.96129 1.6285,-0.47434 3.1155,0.34184 1.4869,0.81613 1.9612,2.44463 0.4743,1.62855 -0.3417,3.11551 l -23.7118,43.2006 q -0.5285,0.96291 -1.4679,1.53205 -0.9395,0.56916 -2.0377,0.59173 l -41.9164,0.86159 q -1.6959,0.0348 -2.9197,-1.13965 -1.2238,-1.17451 -1.2586,-2.87032 -0.035,-1.69586 1.1395,-2.91966 1.1745,-1.22378 2.8704,-1.25862 z m 62.0936,76.98252 -23.4234,-8.55036 q -0.6175,-0.22535 -1.1333,-0.6327 -0.516,-0.40735 -0.8785,-0.95571 l -39.9902,-60.49133 q -0.5722,-0.86568 -0.6632,-1.89948 -0.091,-1.0338 0.3215,-1.98612 l 20.4586,-47.24318 q 0.5179,-1.19589 1.6316,-1.87249 1.1139,-0.67664 2.4138,-0.58509 l 45.1695,3.181 q 0.957,0.0674 1.7845,0.55284 0.8275,0.48548 1.3532,1.28804 l 20.6028,31.44959 q 0.9295,1.41883 0.5835,3.07937 -0.3461,1.66055 -1.7649,2.59004 -1.4189,0.9295 -3.0795,0.58344 -1.6604,-0.34602 -2.5899,-1.76485 l -20.6028,-31.44959 3.4254,-2.244 -0.2877,4.08488 -45.1694,-3.181 0.2877,-4.08488 3.7577,1.6273 -20.4586,47.24319 -3.7577,-1.6273 3.416,-2.2583 39.9901,60.49132 -3.416,2.2583 1.4042,-3.84671 23.4234,8.55036 q 1.5933,0.58161 2.3087,2.11958 0.7153,1.53793 0.1338,3.13134 -0.5817,1.59331 -2.1197,2.30868 -1.5379,0.71543 -3.1312,0.13382 z m -2.3267,18.55897 -1.4906,-91.6199 q -0.019,-1.16649 0.5798,-2.16784 0.5985,-1.00136 1.635,-1.53688 l 49.14,-25.389 q 1.4562,-0.75234 3.0293,-0.29222 1.5731,0.46013 2.3943,1.87859 l 27.027,46.68299 q 0.4871,0.84125 0.5441,1.81159 0.057,0.97036 -0.3282,1.86282 l -21.0877,48.86151 q -0.6721,1.55732 -2.2486,2.18327 -1.5764,0.62599 -3.1338,-0.0461 -1.5574,-0.67214 -2.1833,-2.24865 -0.626,-1.57647 0.046,-3.13379 l 21.0876,-48.86151 3.7598,1.62265 -3.5439,2.05175 -27.027,-46.683 3.5439,-2.05174 1.8796,3.63811 -49.1399,25.389 -1.8797,-3.63812 4.0944,-0.0666 1.4906,91.61984 q 0.028,1.69594 -1.1522,2.91469 -1.1797,1.21875 -2.8756,1.24639 -1.696,0.0275 -2.9148,-1.15216 -1.2187,-1.17972 -1.2463,-2.87565 z m -168.7676,-335.68078 31.597,-28.560175 q 1.2583,-1.13741 2.9523,-1.051893 1.6941,0.08552 2.8315,1.343868 1.1374,1.25833 1.0519,2.95238 -0.085,1.69405 -1.3439,2.83146 l -31.597,28.56017 q -1.2584,1.1374 -2.9524,1.05188 -1.6941,-0.0855 -2.8314,-1.34385 -1.1374,-1.25835 -1.0519,-2.9524 0.085,-1.69404 1.3439,-2.83144 z m -31.6525,-8.97502 35.3055,8.01965 q 1.2959,0.29438 2.172,1.29371 0.8762,0.99933 0.9985,2.3227 l 7.2826,78.79434 q 0.156,1.68898 -0.9279,2.99369 -1.0839,1.30471 -2.7729,1.46082 -1.689,0.15611 -2.9937,-0.92782 -1.3047,-1.08394 -1.4608,-2.77293 l -7.2825,-78.79436 4.0776,-0.37687 -0.9071,3.99327 -35.3054,-8.01965 q -1.6541,-0.37574 -2.558,-1.81102 -0.904,-1.43528 -0.5282,-3.08934 0.3757,-1.65408 1.8109,-2.558 1.4353,-0.90393 3.0894,-0.52819 z m 67.0387,83.08639 -23.5741,11.40704 q -0.9435,0.45654 -1.9903,0.40363 -1.0468,-0.0529 -1.9395,-0.60223 l -21.294,-13.104 q -0.6508,-0.40048 -1.1133,-1.00871 -0.4626,-0.60822 -0.6747,-1.34232 l -21.294,-73.70999 q -0.2922,-1.01158 -0.06,-2.03864 0.232,-1.02706 0.9306,-1.81486 l 38.493,-43.407002 q 1.0876,-1.226444 2.7211,-1.363648 1.6335,-0.137204 2.9104,0.890645 l 38.0704,30.643705 q 1.3213,1.06356 1.5036,2.74995 0.1823,1.68638 -0.8813,3.00772 -1.0636,1.32132 -2.75,1.50359 -1.6863,0.18227 -3.0076,-0.8813 l -38.0704,-30.643699 2.5677,-3.189983 3.0638,2.716974 -38.493,43.406998 -3.0638,-2.71697 3.9341,-1.13653 21.294,73.71 -3.9341,1.13652 2.1461,-3.48755 21.294,13.104 -2.1461,3.48755 -1.7837,-3.68615 23.5741,-11.40704 q 1.5268,-0.73882 3.1289,-0.18158 1.602,0.55724 2.3409,2.08409 0.7388,1.52685 0.1816,3.12891 -0.5573,1.60206 -2.0841,2.34088 z m 146.827,34.22681 -13.3071,62.34228 -4.0047,-0.85484 3.9443,-1.10076 8.4422,30.25059 q 0.4559,1.63375 -0.3769,3.11141 -0.8329,1.47764 -2.4666,1.93363 -1.6338,0.45594 -3.1114,-0.37691 -1.4777,-0.83285 -1.9337,-2.46662 l -8.4422,-30.25059 q -0.1334,-0.47803 -0.1487,-0.97411 -0.015,-0.49608 0.088,-0.98149 l 13.3071,-62.34227 q 0.354,-1.65884 1.7774,-2.58144 1.4233,-0.92258 3.0822,-0.56849 1.6588,0.35409 2.5814,1.77742 0.9226,1.42335 0.5685,3.08219 z m -48.3545,26.32945 33.864,32.18999 -2.8213,2.96802 -1.566,-3.78373 50.2866,-20.81241 q 1.5672,-0.64869 3.1341,8.7e-4 1.5669,0.64957 2.2157,2.21686 0.6486,1.56724 -10e-4,3.13414 -0.6496,1.56691 -2.2168,2.21558 l -50.2866,20.81242 q -1.1214,0.46411 -2.3145,0.24226 -1.1932,-0.22182 -2.0728,-1.05796 l -33.8641,-32.18999 q -1.2294,-1.16864 -1.2724,-2.8643 -0.043,-1.69564 1.1257,-2.92504 1.1686,-1.2294 2.8643,-1.27239 1.6956,-0.043 2.9251,1.12568 z m -18.7725,44.60143 24.4193,-95.58713 q 0.4198,-1.64345 1.8787,-2.50863 1.459,-0.86522 3.1025,-0.44537 1.6434,0.41982 2.5085,1.87877 0.8652,1.45894 0.4454,3.10239 l -24.4192,95.58712 q -0.4199,1.64343 -1.8789,2.50862 -1.4589,0.86521 -3.1023,0.44539 -1.6435,-0.41985 -2.5087,-1.87879 -0.8652,-1.45895 -0.4453,-3.10237 z m 29.4349,-98.53216 34.4864,9.13022 q 1.6397,0.4341 2.4922,1.90051 0.8525,1.46642 0.4184,3.10614 -0.4342,1.6397 -1.9006,2.49217 -1.4664,0.85249 -3.1061,0.4184 l -34.4864,-9.13022 q -1.6397,-0.43412 -2.4922,-1.90054 -0.8525,-1.46641 -0.4184,-3.10611 0.4341,-1.63973 1.9005,-2.49222 1.4665,-0.85249 3.1062,-0.41835 z m -47.3456,23.70614 44.3898,-23.37099 1.9078,3.62346 -4.0692,-0.45896 6.6044,-58.55522 q 0.19,-1.68553 1.5163,-2.74295 1.3263,-1.0574 3.0119,-0.86729 1.6855,0.1901 2.7429,1.51637 1.0574,1.32627 0.8673,3.01179 l -6.6044,58.55522 q -0.1141,1.01076 -0.6878,1.8507 -0.5737,0.83995 -1.4737,1.3138 l -44.3898,23.371 q -1.5009,0.79018 -3.121,0.28765 -1.6201,-0.5025 -2.4102,-2.00338 -0.7903,-1.50091 -0.2877,-3.12097 0.5025,-1.62005 2.0034,-2.41023 z m -21.9395,13.68523 -30.0573,9.7199 q -1.6139,0.5219 -3.1242,-0.25029 -1.5103,-0.77219 -2.0321,-2.38607 -0.5219,-1.61393 0.2502,-3.12421 0.7722,-1.51023 2.3861,-2.03213 l 30.0573,-9.7199 q 1.6139,-0.52192 3.1242,0.25024 1.5103,0.77219 2.0322,2.38612 0.5219,1.6139 -0.2503,3.12416 -0.7722,1.51026 -2.3861,2.03218 z m 8.2835,-42.87838 -5.484,39.54132 -4.0562,-0.56256 2.9524,-2.83776 27.1875,28.28499 q 1.1753,1.22288 1.1418,2.91874 -0.034,1.69586 -1.2564,2.87132 -1.223,1.17541 -2.9188,1.14187 -1.6959,-0.0335 -2.8713,-1.25642 l -27.1875,-28.28499 q -0.652,-0.67838 -0.9426,-1.57334 -0.2905,-0.89498 -0.1612,-1.82698 l 5.484,-39.54131 q 0.233,-1.68014 1.5857,-2.70339 1.3528,-1.02325 3.033,-0.79023 1.6801,0.23301 2.7033,1.58581 1.0233,1.35279 0.7903,3.03293 z m -31.811,-41.91067 20.2391,49.44466 q 0.6425,1.56976 -0.013,3.13413 -0.6557,1.56437 -2.2254,2.20694 -1.5698,0.64254 -3.1341,-0.0131 -1.5644,-0.65564 -2.2069,-2.22543 l -20.2391,-49.44466 q -0.6426,-1.5698 0.013,-3.13415 0.6557,-1.56437 2.2255,-2.20692 1.5697,-0.64256 3.1341,0.0131 1.5643,0.65564 2.2069,2.22545 z m -32.7278,-24.43981 31.3382,22.66991 -2.4002,3.31788 -2.2548,-3.41833 55.4758,-36.59291 q 1.4159,-0.93397 3.0775,-0.59318 1.6616,0.34079 2.5956,1.75672 0.9339,1.41592 0.5931,3.07754 -0.3407,1.66161 -1.7566,2.59558 l -55.4758,36.59291 q -1.0662,0.70328 -2.3432,0.67572 -1.2769,-0.0275 -2.3118,-0.77617 l -31.3382,-22.66991 q -1.3743,-0.99417 -1.6431,-2.66895 -0.2688,-1.67477 0.7254,-3.04907 0.9942,-1.37431 2.669,-1.64312 1.6747,-0.2688 3.0491,0.72538 z m 149.5316,102.06991 15.3186,-50.79437 3.9206,1.18236 -2.7964,2.99152 -37.674,-35.21701 2.7964,-2.99151 2.6252,3.14287 -53.2578,44.48472 -2.6251,-3.14285 4.0875,-0.24719 6.1524,101.73617 -4.0876,0.24719 1.8095,-3.67353 30.8861,15.21374 q 1.5216,0.74949 2.0676,2.35542 0.5459,1.60593 -0.2036,3.12759 -0.7496,1.5216 -2.3555,2.06757 -1.6059,0.54596 -3.1275,-0.20353 l -30.8861,-15.21373 q -0.9898,-0.48753 -1.6006,-1.40628 -0.6109,-0.91878 -0.6775,-2.02006 l -6.1523,-101.73617 q -0.059,-0.97359 0.3275,-1.86917 0.3863,-0.89558 1.1349,-1.52088 l 53.2577,-44.48475 q 1.1898,-0.99382 2.7395,-0.95055 1.5496,0.0433 2.6821,1.10192 l 37.674,35.21698 q 0.8538,0.79808 1.1577,1.92653 0.304,1.12848 -0.034,2.24735 l -15.3186,50.79437 q -0.4898,1.62395 -1.9844,2.42596 -1.4946,0.802 -3.1185,0.31227 -1.624,-0.48978 -2.4261,-1.98439 -0.802,-1.49461 -0.3122,-3.11856 z m -128.6843,-4.66576 -27.1809,-92.94014 q -0.3015,-1.03053 -0.058,-2.07635 0.243,-1.04585 0.9679,-1.83788 l 44.226,-48.320997 q 1.0955,-1.196945 2.7135,-1.31869 1.618,-0.121745 2.8803,0.897793 l 42.588,34.397994 q 0.7983,0.64471 1.1981,1.58962 0.4,0.94491 0.3071,1.96675 l -6.5749,72.33407 q -0.1536,1.68921 -1.4566,2.77512 -1.3031,1.08591 -2.9924,0.93238 -1.6892,-0.15357 -2.7751,-1.4566 -1.086,-1.30303 -0.9323,-2.99227 l 6.5749,-72.33409 4.0782,0.3707 -2.573,3.18567 -42.588,-34.398 2.573,-3.185672 3.0208,2.764775 -44.226,48.320997 -3.0208,-2.76478 3.9303,-1.14945 27.181,92.94011 q 0.4761,1.628 -0.3384,3.11584 -0.8145,1.48786 -2.4425,1.96399 -1.628,0.47611 -3.1159,-0.33839 -1.4878,-0.8145 -1.9639,-2.4425 z m 55.4701,-5.66682 -19.0171,-23.36444 3.1759,-2.58502 2.6584,3.11484 -44.3243,37.82801 -2.6583,-3.11487 3.2478,-2.49411 33.0418,43.02699 -3.2479,2.49411 -0.1169,-4.09332 33.7198,-0.96314 q 1.6955,-0.0485 2.9287,1.1162 1.2332,1.16467 1.2816,2.8602 0.048,1.69549 -1.1163,2.92864 -1.1646,1.23315 -2.8601,1.28161 l -33.7199,0.96314 q -0.9848,0.0281 -1.8748,-0.39483 -0.8899,-0.42292 -1.49,-1.20438 l -33.0417,-43.02699 q -0.9955,-1.29643 -0.8247,-2.92214 0.1709,-1.62567 1.4142,-2.68684 l 44.3243,-37.82796 q 0.018,-0.0155 0.036,-0.0308 0.018,-0.0152 0.037,-0.0303 1.3155,-1.07076 3.0029,-0.89768 1.6873,0.17308 2.7581,1.48861 l 19.0172,23.36444 q 1.0707,1.31551 0.8976,3.00287 -0.1731,1.68734 -1.4886,2.7581 -1.3155,1.07074 -3.0029,0.89766 -1.6874,-0.17306 -2.7581,-1.48859 z m 91.58,122.80175 24.4061,-75.68213 3.8974,1.25684 -3.0585,2.72306 -36.9761,-41.52986 3.0584,-2.72306 2.2055,3.45034 -47.1711,30.15231 -2.2056,-3.45034 4.0885,-0.23087 3.3711,59.69527 q 0.096,1.69349 -1.0343,2.95861 -1.1299,1.26509 -2.8233,1.36074 -1.6936,0.0956 -2.9587,-1.03427 -1.2652,-1.12988 -1.3607,-2.82334 l -3.3711,-59.69527 q -0.062,-1.10785 0.4428,-2.09571 0.5053,-0.98788 1.4402,-1.58549 l 47.1712,-30.15231 q 1.2713,-0.81262 2.766,-0.6061 1.4946,0.2065 2.4979,1.33337 l 36.9762,41.52986 q 0.724,0.8131 0.9485,1.87842 0.2246,1.06531 -0.1096,2.10148 l -24.4061,75.68214 q -0.5207,1.61431 -2.0303,2.38772 -1.5096,0.77336 -3.1239,0.25279 -1.6144,-0.52063 -2.3878,-2.03026 -0.7734,-1.50963 -0.2527,-3.12394 z"
           id="path131"
           style="display:inline" /></g><g
         id="g453"><path
           fill="#083738"
           stroke="none"
           paint-order="stroke fill markers"
           d="m 1485.5303,521.51577 70.6941,-38.16257 53.1199,-107.63251 39.7613,-50.57771 7.7501,-126.09043 -28.2111,-135.974595 -139.303,-157.996801 -131.976,129.167999 -19.188,123.552017 -21.6103,57.50784 9.9103,131.09615 45.396,47.736 32.292,74.88 z"
           id="path169"
           style="display:inline" /><g
           clip-path="url(#vRahAwulGNTr)"
           id="g172"
           style="display:inline"><path
             fill="#1fdbde"
             stroke="none"
             paint-order="stroke fill markers"
             d="m 1485.5303,521.51577 70.6941,-38.16257 53.1199,-107.63251 39.7613,-50.57771 7.7501,-126.09043 -28.2111,-135.974595 -139.303,-157.996801 -131.976,129.167999 -19.188,123.552017 -21.6103,57.50784 9.9103,131.09615 45.396,47.736 32.292,74.88 z"
             id="path170" /><path
             fill="#1cc6c8"
             stroke="none"
             paint-order="stroke fill markers"
             d="m 1609.3443,375.72069 -53.1199,107.63251 -70.6942,38.16257 23.1604,-91.11398 62.3226,-86.04461 z m -282.8667,-29.31553 57.2383,-13.23879 46.8038,51.76079 -26.3578,84.09023 -32.2883,-74.88 z m 155.1626,-239.40259 17.1401,153.69118 94.7643,-18.49537 35.1,-179.120439 z m 4.9721,129.64723 46.025,61.02721 41.4086,-126.77184 -66.9203,-61.776 z"
             id="path171"
             style="fill:#1cc5c8;fill-opacity:1" /><path
             fill="#86f2f5"
             stroke="none"
             paint-order="stroke fill markers"
             d="m 1628.6446,63.077955 -35.1,179.124195 58.7359,2.11163 4.5789,-45.2612 z m -129.8643,197.615795 72.2329,83.66343 22.5314,-102.15503 z m -115.9031,-37.89303 0.8387,110.36562 46.8037,51.76079 68.2606,-124.23341 z m 0,0 -66.3062,-7.488 20.2813,-53.53921 z m -25.5116,-188.551582 66.924,61.776 57.3506,10.977402 7.7014,-201.9214 z"
             id="path172" /></g><g
           id="g452"
           style="display:inline"><path
             style="display:inline;fill:none;fill-opacity:1;stroke:#19aeb2;stroke-width:11.232;stroke-linecap:round;stroke-linejoin:round;stroke-dasharray:none;stroke-opacity:1"
             d="m 1489.3416,-94.91886 -131.976,129.168013 -20.5133,127.524357 -20.2813,53.53921 9.9066,131.09244 45.396,47.736 32.292,74.88 81.3646,52.49455 70.6942,-38.16251 53.1199,-107.63251 39.7613,-50.57771 7.7501,-126.09043 -28.2111,-135.974609 z"
             id="path450" /><path
             style="display:inline;fill:none;fill-opacity:1;stroke:#19aeb2;stroke-width:11.232;stroke-linecap:round;stroke-linejoin:round;stroke-dasharray:none;stroke-opacity:1"
             d="m 1489.3416,-94.918846 -7.7014,201.921416 147.0044,-43.924615 -35.1,179.120425 60.4309,3.71436 -60.4309,-3.71059 -22.5314,102.15503 38.3311,31.36351 -38.3311,-31.36351 -72.2329,-83.66343 94.7643,-18.49537 -94.7643,18.49537 -17.1401,-153.69118 -57.3506,-10.977432 -66.924,-61.775985 -20.388,126.745347 45.8996,61.80622 -66.3062,-7.488 9.9066,131.09244 57.2383,-13.23879 -0.8387,-110.36565 115.903,37.893 -68.2605,124.23344 -46.8038,-51.76082 46.8038,51.76082 -26.3541,84.094 81.3647,52.49461 23.1603,-91.11398 62.3226,-86.04461 -62.3226,86.04461 -78.171,-45.47466 68.2607,-124.23338 -115.9031,-37.89303 41.4124,-126.775582 57.3506,10.977432"
             id="path451" /></g></g></g></g></svg>
