<?xml version="1.0" encoding="UTF-8" standalone="no"?>
<svg viewBox="0 0 110 110" version="1.1" id="svg32" sodipodi:docname="dummygall.svg" xml:space="preserve" inkscape:export-filename="..\..\tradergall.svg" inkscape:export-xdpi="96" inkscape:export-ydpi="96" width="110" height="110"
    xmlns:inkscape="http://www.inkscape.org/namespaces/inkscape"
    xmlns:sodipodi="http://sodipodi.sourceforge.net/DTD/sodipodi-0.dtd"
    xmlns="http://www.w3.org/2000/svg"
    xmlns:svg="http://www.w3.org/2000/svg">
    <defs id="defs32">
        <clipPath id="SGRsgpGxCsAG">
            <path fill="none" stroke="none" d="m 91.517224,414.17365 a 1.4175,2.835 0 1 1 -10e-7,-0.003" id="path1-1-6" />
        </clipPath>
        <clipPath id="UGktDQgWTzac">
            <path fill="none" stroke="none" d="m 98.132229,414.17365 a 1.4175,2.835 0 1 1 0,-0.003" id="path2-8" />
        </clipPath>
    </defs>
    <sodipodi:namedview id="namedview32" pagecolor="#ffffff" bordercolor="#cccccc" borderopacity="1" inkscape:showpageshadow="0" inkscape:pageopacity="1" inkscape:pagecheckerboard="0" inkscape:deskcolor="#d1d1d1">
        <inkscape:page x="0" y="0" width="110" height="110" id="page2" margin="0" bleed="0" />
    </sodipodi:namedview>
    <clipPath id="a">
        <rect width="91.667" height="91.667" x="9.1669998" y="9.1669998" rx="4.1669998" ry="4.1669998" id="rect1" />
    </clipPath>
    <g clip-path="url(#a)" id="g32" transform="translate(-0.54313221,-3.0707938)">
        <g id="g6249" transform="matrix(2.7203891,5.3451241e-8,-5.3451241e-8,2.7203891,-198.56087,-1075.0815)" style="display:inline" inkscape:label="dummy">
            <path fill="#7c7c7c" stroke="none" paint-order="stroke fill markers" d="m 105.92848,416.53613 a 12.52125,12.52125 0 1 1 -10e-6,-0.0125" id="path142" />
            <path fill="#999999" stroke="none" paint-order="stroke fill markers" d="m 104.51098,416.53613 a 11.10375,11.10375 0 1 1 -1e-5,-0.0111" id="path143" />
            <path fill="none" stroke="#111111" paint-order="fill stroke markers" d="m 90.572227,421.26114 q 2.835,0 5.67,0" stroke-linecap="round" stroke-miterlimit="10" stroke-width="0.70875" stroke-dasharray="none" id="path150" />
            <g id="g75" inkscape:label="eyes">
                <g id="g74">
                    <path fill="#111111" stroke="none" paint-order="stroke fill markers" d="m 91.517224,414.17365 a 1.4175,2.835 0 1 1 -10e-7,-0.003" id="path144" style="display:inline" />
                    <g clip-path="url(#SGRsgpGxCsAG)" id="g145" style="display:inline">
                        <path fill="#eeeeee" stroke="none" paint-order="stroke fill markers" d="m 89.390974,413.4649 h 1.4175 v 1.4175 h -1.4175 z" id="path145" />
                    </g>
                    <path fill="none" stroke="#111111" stroke-width="0.334124" stroke-linecap="round" stroke-linejoin="round" d="m 91.513371,414.19032 q 0,0.13928 -0.0068,0.27789 -0.0068,0.13861 -0.02041,0.27522 -0.01359,0.1366 -0.03381,0.26988 -0.02021,0.13329 -0.04686,0.26197 -0.02665,0.12867 -0.05948,0.25151 -0.03283,0.12284 -0.07152,0.23864 -0.03869,0.11581 -0.08287,0.22348 -0.04418,0.10767 -0.09342,0.20615 -0.04924,0.0985 -0.103077,0.18684 -0.05383,0.0884 -0.111737,0.16575 -0.0579,0.0774 -0.119322,0.14303 -0.06142,0.0657 -0.125757,0.11896 -0.06434,0.0533 -0.130982,0.0937 -0.06664,0.0404 -0.134945,0.0676 -0.0683,0.0272 -0.137608,0.0408 -0.0693,0.0137 -0.138946,0.0137 -0.06964,0 -0.138946,-0.0137 -0.06931,-0.0136 -0.137608,-0.0408 -0.0683,-0.0272 -0.134945,-0.0676 -0.06664,-0.0404 -0.130982,-0.0937 -0.06434,-0.0533 -0.125757,-0.11896 -0.06142,-0.0657 -0.119322,-0.14303 -0.0579,-0.0774 -0.111737,-0.16575 -0.05384,-0.0884 -0.103077,-0.18684 -0.04924,-0.0985 -0.09342,-0.20615 -0.04418,-0.10767 -0.08287,-0.22348 -0.03869,-0.1158 -0.07152,-0.23864 -0.03283,-0.12284 -0.05948,-0.25151 -0.02665,-0.12868 -0.04686,-0.26197 -0.02022,-0.13328 -0.03381,-0.26988 -0.01359,-0.13661 -0.02041,-0.27522 -0.0068,-0.13861 -0.0068,-0.27789 0,-0.13928 0.0068,-0.27789 0.0068,-0.13861 0.02041,-0.27522 0.01359,-0.1366 0.03381,-0.26988 0.02021,-0.13329 0.04686,-0.26197 0.02665,-0.12867 0.05948,-0.25151 0.03283,-0.12284 0.07152,-0.23864 0.03869,-0.11581 0.08287,-0.22348 0.04418,-0.10767 0.09342,-0.20615 0.04924,-0.0985 0.103077,-0.18684 0.05383,-0.0884 0.111737,-0.16575 0.0579,-0.0774 0.119322,-0.14303 0.06142,-0.0657 0.125757,-0.11896 0.06434,-0.0533 0.130982,-0.0937 0.06664,-0.0404 0.134945,-0.0676 0.0683,-0.0272 0.137608,-0.0408 0.0693,-0.0137 0.138946,-0.0137 0.06964,0 0.138946,0.0137 0.06931,0.0136 0.137608,0.0408 0.0683,0.0272 0.134945,0.0676 0.06664,0.0404 0.130982,0.0937 0.06434,0.0533 0.125757,0.11896 0.06142,0.0657 0.119322,0.14303 0.0579,0.0774 0.111737,0.16575 0.05383,0.0884 0.103077,0.18684 0.04924,0.0985 0.09342,0.20615 0.04418,0.10767 0.08287,0.22348 0.03869,0.1158 0.07152,0.23864 0.03283,0.12284 0.05948,0.25151 0.02665,0.12868 0.04686,0.26197 0.02021,0.13328 0.03381,0.26988 0.01358,0.13661 0.02041,0.27522 0.0068,0.13861 0.0068,0.27789" id="path37" style="display:inline" />
                </g>
                <g id="g73">
                    <path fill="#111111" stroke="none" paint-order="stroke fill markers" d="m 98.132229,414.17365 a 1.4175,2.835 0 1 1 0,-0.003" id="path147" style="display:inline" />
                    <g clip-path="url(#UGktDQgWTzac)" id="g148" style="display:inline">
                        <path fill="#eeeeee" stroke="none" paint-order="stroke fill markers" d="m 96.005979,413.4649 h 1.4175 v 1.4175 h -1.4175 z" id="path148" />
                    </g>
                    <path fill="none" stroke="#111111" stroke-width="0.334124" stroke-linecap="round" stroke-linejoin="round" d="m 98.128709,414.19032 q 0,0.13928 -0.0068,0.27789 -0.0068,0.13861 -0.02041,0.27522 -0.01359,0.1366 -0.03381,0.26988 -0.02021,0.13329 -0.04686,0.26197 -0.02665,0.12867 -0.05948,0.25151 -0.03283,0.12284 -0.07152,0.23864 -0.03869,0.11581 -0.08287,0.22348 -0.04418,0.10767 -0.09342,0.20615 -0.04924,0.0985 -0.103077,0.18684 -0.05383,0.0884 -0.111737,0.16575 -0.0579,0.0774 -0.119322,0.14303 -0.06142,0.0657 -0.125757,0.11896 -0.06434,0.0533 -0.130982,0.0937 -0.06664,0.0404 -0.134945,0.0676 -0.0683,0.0272 -0.137608,0.0408 -0.0693,0.0137 -0.138946,0.0137 -0.06964,0 -0.138946,-0.0137 -0.06931,-0.0136 -0.137608,-0.0408 -0.0683,-0.0272 -0.134945,-0.0676 -0.06664,-0.0404 -0.130982,-0.0937 -0.06434,-0.0533 -0.125757,-0.11896 -0.06142,-0.0657 -0.119322,-0.14303 -0.0579,-0.0774 -0.111737,-0.16575 -0.05384,-0.0884 -0.103077,-0.18684 -0.04924,-0.0985 -0.09342,-0.20615 -0.04418,-0.10767 -0.08287,-0.22348 -0.03869,-0.1158 -0.07152,-0.23864 -0.03283,-0.12284 -0.05948,-0.25151 -0.02665,-0.12868 -0.04686,-0.26197 -0.02021,-0.13328 -0.03381,-0.26988 -0.01358,-0.13661 -0.02041,-0.27522 -0.0068,-0.13861 -0.0068,-0.27789 0,-0.13928 0.0068,-0.27789 0.0068,-0.13861 0.02041,-0.27522 0.01359,-0.1366 0.03381,-0.26988 0.02021,-0.13329 0.04686,-0.26197 0.02665,-0.12867 0.05948,-0.25151 0.03283,-0.12284 0.07152,-0.23864 0.03869,-0.11581 0.08287,-0.22348 0.04418,-0.10767 0.09342,-0.20615 0.04924,-0.0985 0.103077,-0.18684 0.05383,-0.0884 0.111737,-0.16575 0.0579,-0.0774 0.119322,-0.14303 0.06142,-0.0657 0.125757,-0.11896 0.06434,-0.0533 0.130982,-0.0937 0.06664,-0.0404 0.134945,-0.0676 0.0683,-0.0272 0.137608,-0.0408 0.0693,-0.0137 0.138946,-0.0137 0.06964,0 0.138946,0.0137 0.06931,0.0136 0.137608,0.0408 0.0683,0.0272 0.134945,0.0676 0.06664,0.0404 0.130982,0.0937 0.06434,0.0533 0.125757,0.11896 0.06142,0.0657 0.119322,0.14303 0.0579,0.0774 0.111737,0.16575 0.05384,0.0884 0.103077,0.18684 0.04924,0.0985 0.09342,0.20615 0.04418,0.10767 0.08287,0.22348 0.03869,0.1158 0.07152,0.23864 0.03283,0.12284 0.05948,0.25151 0.02665,0.12868 0.04686,0.26197 0.02022,0.13328 0.03381,0.26988 0.01359,0.13661 0.02041,0.27522 0.0068,0.13861 0.0068,0.27789" id="path40" style="display:inline" />
                </g>
            </g>
        </g>
    </g>
</svg>
