<?xml version="1.0" encoding="UTF-8" standalone="no"?>
<svg
   viewBox="0 0 110 110"
   version="1.1"
   id="svg32"
   sodipodi:docname="titangall.svg"
   xml:space="preserve"
   inkscape:export-filename="..\..\titangall.svg"
   inkscape:export-xdpi="96"
   inkscape:export-ydpi="96"
   width="110"
   height="110"
   xmlns:inkscape="http://www.inkscape.org/namespaces/inkscape"
   xmlns:sodipodi="http://sodipodi.sourceforge.net/DTD/sodipodi-0.dtd"
   xmlns:xlink="http://www.w3.org/1999/xlink"
   xmlns="http://www.w3.org/2000/svg"
   xmlns:svg="http://www.w3.org/2000/svg"><defs
     id="defs32"><clipPath
       clipPathUnits="userSpaceOnUse"
       id="clipPath113"><use
         x="0"
         y="0"
         xlink:href="#g112"
         id="use113" /></clipPath><clipPath
       clipPathUnits="userSpaceOnUse"
       id="clipPath115"><use
         x="0"
         y="0"
         xlink:href="#g114"
         id="use115" /></clipPath></defs><sodipodi:namedview
     id="namedview32"
     pagecolor="#ffffff"
     bordercolor="#cccccc"
     borderopacity="1"
     inkscape:showpageshadow="0"
     inkscape:pageopacity="1"
     inkscape:pagecheckerboard="0"
     inkscape:deskcolor="#d1d1d1"><inkscape:page
       x="0"
       y="0"
       width="110"
       height="110"
       id="page2"
       margin="0"
       bleed="0" /></sodipodi:namedview><clipPath
     id="a"><rect
       width="91.667"
       height="91.667"
       x="9.1669998"
       y="9.1669998"
       rx="4.1669998"
       ry="4.1669998"
       id="rect1" /></clipPath><g
     clip-path="url(#a)"
     id="g32"
     transform="translate(-0.54310428,-3.0988672)"><g
       id="g6572"
       transform="matrix(0.05298541,0,0,0.05298541,-34.461722,25.312281)"
       style="display:inline"
       inkscape:label="titan"><path
         fill="#535353"
         stroke="none"
         paint-order="stroke fill markers"
         d="m 1674.3389,1359.9105 -83.1514,-62.4959 -98.394,33.7419 -46.284,-15.0386 -59.7694,-85.1323 -104.0049,1.6851 -39.3716,-28.6051 -30.5368,-99.4354 -99.4354,-30.5368 -28.6051,-39.3716 1.6851,-104.0049 -85.1323,-59.7694 -15.03855,-46.28403 33.74185,-98.39399 -62.49583,-83.15146 V 594.4521 l 62.49583,-83.15129 -33.74184,-98.39396 15.03854,-46.28402 85.1323,-59.76944 -1.685,-104.0051 28.6052,-39.37157 99.4353,-30.5366 30.5368,-99.43546 39.3716,-28.6051032 104.0048,1.6851338 59.7694,-85.1322886 46.284,-15.038567 98.394,33.74192 83.1514,-62.495905 h 48.666 l 83.1514,62.49591 98.394,-33.741914 46.284,15.038568 59.7694,85.1323436 104.0048,-1.6851801 39.3716,28.6051055 30.5368,99.435457 99.4353,30.53671 28.6052,39.37152 -1.6851,104.00507 85.1323,59.76943 15.0386,46.28402 -33.7419,98.39401 62.4959,83.15145 -1e-4,48.66595 -62.4958,83.15108 33.7419,98.39396 -15.0385,46.28404 -85.1323,59.76944 1.685,104.00508 -28.6052,39.3716 -99.4353,30.5367 -30.5368,99.4354 -39.3715,28.6051 -104.0051,-1.685 -59.7695,85.1323 -46.2841,15.0385 -98.3936,-33.7419 -83.1515,62.4959 z"
         id="path441"
         style="display:inline" /><path
         fill="#666666"
         stroke="none"
         paint-order="stroke fill markers"
         d="m 2291.9969,618.78517 a 593.32505,593.32505 0 1 1 -3e-4,-0.59332"
         id="path442"
         style="display:inline" /><g
         id="g46"
         transform="matrix(23.142805,0,0,23.142805,425.60323,-653.951)"
         style="display:inline"
         inkscape:label="eyes"><g
           id="g115"
           clip-path="url(#clipPath115)"><g
             inkscape:label="Clip"
             id="g114"><path
               fill="#111111"
               d="m 50.342614,49.1667 q 0,0.343889 -0.01686,0.686118 -0.01685,0.342232 -0.05039,0.679513 -0.03355,0.33728 -0.08346,0.666359 -0.04991,0.329084 -0.11571,0.64679 -0.0658,0.317706 -0.146861,0.620992 -0.08105,0.303286 -0.176575,0.589213 -0.09553,0.285926 -0.204611,0.551762 -0.109083,0.265837 -0.230662,0.508993 -0.121579,0.243156 -0.254497,0.461323 -0.132919,0.218166 -0.275883,0.409219 -0.142964,0.191053 -0.294607,0.353149 -0.151644,0.16212 -0.310498,0.29372 -0.158854,0.1316 -0.323396,0.23142 -0.16454,0.09982 -0.333181,0.166926 -0.168641,0.06708 -0.339758,0.100777 -0.171115,0.03372 -0.34306,0.03372 -0.171945,0 -0.343061,-0.03372 -0.171117,-0.03369 -0.339758,-0.100777 -0.16864,-0.06711 -0.333181,-0.166926 -0.164542,-0.09982 -0.323396,-0.23142 -0.158854,-0.1316 -0.310497,-0.29372 -0.151644,-0.162096 -0.294608,-0.353149 -0.142964,-0.191053 -0.275882,-0.409219 -0.132919,-0.218167 -0.254498,-0.461323 -0.121578,-0.243156 -0.230662,-0.508993 -0.109084,-0.265836 -0.204611,-0.551762 -0.09553,-0.285927 -0.176575,-0.589213 -0.08106,-0.303286 -0.146861,-0.620992 -0.0658,-0.317706 -0.11571,-0.64679 -0.04991,-0.329079 -0.08346,-0.666359 -0.03354,-0.337281 -0.05039,-0.679513 -0.01686,-0.342229 -0.01686,-0.686118 0,-0.343888 0.01686,-0.686118 0.01685,-0.342232 0.05039,-0.679512 0.03355,-0.337281 0.08346,-0.666359 0.04991,-0.329084 0.11571,-0.64679 0.0658,-0.317706 0.146861,-0.620993 0.08105,-0.303286 0.176575,-0.589212 0.09553,-0.285926 0.204611,-0.551763 0.109084,-0.265836 0.230662,-0.508992 0.121579,-0.243157 0.254498,-0.461323 0.132918,-0.218166 0.275882,-0.409219 0.142964,-0.191053 0.294608,-0.35315 0.151643,-0.16212 0.310497,-0.293719 0.158854,-0.1316 0.323396,-0.23142 0.164541,-0.09982 0.333181,-0.166927 0.168641,-0.06708 0.339758,-0.100776 0.171116,-0.03372 0.343061,-0.03372 0.171945,0 0.34306,0.03372 0.171117,0.03369 0.339758,0.100776 0.168641,0.06711 0.333181,0.166927 0.164542,0.09982 0.323396,0.23142 0.158854,0.131599 0.310498,0.293719 0.151643,0.162097 0.294607,0.35315 0.142964,0.191053 0.275883,0.409219 0.132918,0.218166 0.254497,0.461323 0.121579,0.243156 0.230662,0.508992 0.109084,0.265837 0.204611,0.551763 0.09553,0.285926 0.176575,0.589212 0.08106,0.303287 0.146861,0.620993 0.0658,0.317706 0.11571,0.64679 0.04991,0.329078 0.08346,0.666359 0.03354,0.33728 0.05039,0.679512 0.01686,0.34223 0.01686,0.686118"
               id="path41"
               style="display:inline;stroke-width:1.64992" /></g><path
             fill="#eeeeee"
             d="m 52.8795,49.334152 q 0,0.171944 -0.01685,0.343071 -0.01686,0.171116 -0.0504,0.339746 -0.03354,0.168642 -0.08345,0.33319 -0.04992,0.164535 -0.115722,0.323389 -0.0658,0.158865 -0.146849,0.310497 -0.08106,0.151644 -0.176587,0.294608 -0.09553,0.142975 -0.204599,0.275882 -0.109084,0.132919 -0.230674,0.254498 -0.121579,0.12159 -0.254498,0.230662 -0.132907,0.109084 -0.275882,0.204611 -0.142964,0.09553 -0.294608,0.176587 -0.151632,0.08105 -0.310497,0.146849 -0.158854,0.0658 -0.323389,0.11571 -0.164548,0.04992 -0.333178,0.08346 -0.168642,0.03354 -0.339758,0.0504 -0.171115,0.01685 -0.343071,0.01685 -0.171939,0 -0.343055,-0.01685 -0.171117,-0.01686 -0.339757,-0.0504 -0.168641,-0.03354 -0.333181,-0.08346 -0.164541,-0.04991 -0.323397,-0.11571 -0.158857,-0.0658 -0.310498,-0.146849 -0.151641,-0.08106 -0.294608,-0.176587 -0.142967,-0.09553 -0.275881,-0.204611 -0.132915,-0.109072 -0.254503,-0.230662 -0.121579,-0.121579 -0.230662,-0.254498 -0.109072,-0.132907 -0.204599,-0.275882 -0.09553,-0.142964 -0.176587,-0.294608 -0.08105,-0.151632 -0.146849,-0.310497 -0.0658,-0.158854 -0.115722,-0.323389 -0.04991,-0.164548 -0.08345,-0.33319 -0.03354,-0.16863 -0.0504,-0.339746 -0.01686,-0.171127 -0.01686,-0.343071 0,-0.171943 0.01686,-0.343059 0.01686,-0.171115 0.0504,-0.339758 0.03354,-0.168642 0.08345,-0.333177 0.04992,-0.164536 0.115722,-0.323401 0.0658,-0.158854 0.146849,-0.310498 0.08106,-0.151632 0.176587,-0.294607 0.09553,-0.142964 0.204599,-0.275883 0.109083,-0.132907 0.230662,-0.254497 0.121588,-0.121579 0.254503,-0.230662 0.132914,-0.109078 0.275881,-0.204605 0.142967,-0.09553 0.294608,-0.176581 0.151641,-0.08105 0.310498,-0.146855 0.158856,-0.0658 0.323397,-0.115713 0.16454,-0.04991 0.333181,-0.08346 0.16864,-0.03355 0.339757,-0.0504 0.171116,-0.01685 0.343055,-0.01685 0.171956,0 0.343071,0.01685 0.171116,0.01685 0.339758,0.0504 0.16863,0.03355 0.333178,0.08346 0.164535,0.04991 0.323389,0.115713 0.158865,0.0658 0.310497,0.146855 0.151644,0.08105 0.294608,0.176581 0.142975,0.09553 0.275882,0.204605 0.132919,0.109083 0.254498,0.230662 0.12159,0.12159 0.230674,0.254497 0.109072,0.132919 0.204599,0.275883 0.09553,0.142975 0.176587,0.294607 0.08105,0.151644 0.146849,0.310498 0.0658,0.158865 0.115722,0.323401 0.04991,0.164535 0.08345,0.333177 0.03354,0.168643 0.0504,0.339758 0.01685,0.171116 0.01685,0.343059"
             id="path42"
             style="display:inline;stroke-width:1.16667" /></g><path
           fill="none"
           stroke="#111111"
           stroke-width="0.5"
           stroke-linecap="round"
           stroke-linejoin="round"
           transform="matrix(1.16667,0,0,2.33333,46.8333,49.1667)"
           d="M 3,0 Q 3,0.147381 2.98555,0.294051 2.97111,0.440722 2.94236,0.585271 2.9136,0.72982 2.87082,0.870854 2.82804,1.01189 2.77164,1.14805 2.71524,1.28421 2.64576,1.41419 2.57629,1.54417 2.49441,1.66671 2.41253,1.78925 2.31903,1.90318 2.22553,2.01711 2.12132,2.12132 2.01711,2.22553 1.90318,2.31903 1.78925,2.41253 1.66671,2.49441 1.54417,2.57629 1.41419,2.64576 1.28421,2.71524 1.14805,2.77164 1.01189,2.82804 0.870854,2.87082 0.72982,2.9136 0.585271,2.94236 0.440722,2.97111 0.294051,2.98555 0.147381,3 0,3 -0.147381,3 -0.294051,2.98555 -0.440722,2.97111 -0.585271,2.94236 -0.72982,2.9136 -0.870854,2.87082 -1.01189,2.82804 -1.14805,2.77164 -1.28421,2.71524 -1.41419,2.64576 -1.54417,2.57629 -1.66671,2.49441 -1.78925,2.41253 -1.90318,2.31903 -2.01711,2.22553 -2.12132,2.12132 -2.22553,2.01711 -2.31903,1.90318 -2.41253,1.78925 -2.49441,1.66671 -2.57629,1.54417 -2.64576,1.41419 -2.71524,1.28421 -2.77164,1.14805 -2.82804,1.01189 -2.87082,0.870854 -2.9136,0.72982 -2.94236,0.585271 -2.97111,0.440722 -2.98555,0.294051 -3,0.147381 -3,0 q 0,-0.147381 0.01445,-0.294051 0.01444,-0.146671 0.04319,-0.29122 0.02876,-0.144549 0.07154,-0.285583 0.04278,-0.141036 0.09918,-0.277196 0.0564,-0.13616 0.12588,-0.26614 0.06947,-0.12998 0.15135,-0.25252 0.08188,-0.12254 0.17538,-0.23647 0.0935,-0.11393 0.19771,-0.21814 0.10421,-0.10421 0.21814,-0.19771 0.11393,-0.0935 0.23647,-0.17538 0.12254,-0.08188 0.25252,-0.15135 0.12998,-0.06948 0.26614,-0.12588 0.13616,-0.0564 0.277196,-0.09918 0.141034,-0.04278 0.285583,-0.07154 0.144549,-0.02875 0.29122,-0.04319 Q -0.147381,-3 0,-3 q 0.147381,0 0.294051,0.01445 0.146671,0.01444 0.29122,0.04319 0.144549,0.02876 0.285583,0.07154 0.141036,0.04278 0.277196,0.09918 0.13616,0.0564 0.26614,0.12588 0.12998,0.06947 0.25252,0.15135 0.12254,0.08188 0.23647,0.17538 0.11393,0.0935 0.21814,0.19771 0.10421,0.10421 0.19771,0.21814 0.0935,0.11393 0.17538,0.23647 0.08188,0.12254 0.15135,0.25252 0.06948,0.12998 0.12588,0.26614 0.0564,0.13616 0.09918,0.277196 0.04278,0.141034 0.07154,0.285583 0.02875,0.144549 0.04319,0.29122 Q 3,-0.147381 3,0"
           id="path43"
           style="display:inline" /><g
           id="g113"
           clip-path="url(#clipPath113)"><g
             inkscape:label="Clip"
             id="g112"><path
               fill="#111111"
               transform="matrix(1.16667,0,0,2.33333,63.1667,49.1667)"
               d="M 3,0 Q 3,0.147381 2.98555,0.294051 2.97111,0.440722 2.94236,0.585271 2.9136,0.72982 2.87082,0.870854 2.82804,1.01189 2.77164,1.14805 2.71524,1.28421 2.64576,1.41419 2.57629,1.54417 2.49441,1.66671 2.41253,1.78925 2.31903,1.90318 2.22553,2.01711 2.12132,2.12132 2.01711,2.22553 1.90318,2.31903 1.78925,2.41253 1.66671,2.49441 1.54417,2.57629 1.41419,2.64576 1.28421,2.71524 1.14805,2.77164 1.01189,2.82804 0.870854,2.87082 0.72982,2.9136 0.585271,2.94236 0.440722,2.97111 0.294051,2.98555 0.147381,3 0,3 -0.147381,3 -0.294051,2.98555 -0.440722,2.97111 -0.585271,2.94236 -0.72982,2.9136 -0.870854,2.87082 -1.01189,2.82804 -1.14805,2.77164 -1.28421,2.71524 -1.41419,2.64576 -1.54417,2.57629 -1.66671,2.49441 -1.78925,2.41253 -1.90318,2.31903 -2.01711,2.22553 -2.12132,2.12132 -2.22553,2.01711 -2.31903,1.90318 -2.41253,1.78925 -2.49441,1.66671 -2.57629,1.54417 -2.64576,1.41419 -2.71524,1.28421 -2.77164,1.14805 -2.82804,1.01189 -2.87082,0.870854 -2.9136,0.72982 -2.94236,0.585271 -2.97111,0.440722 -2.98555,0.294051 -3,0.147381 -3,0 q 0,-0.147381 0.01445,-0.294051 0.01444,-0.146671 0.04319,-0.29122 0.02876,-0.144549 0.07154,-0.285583 0.04278,-0.141036 0.09918,-0.277196 0.0564,-0.13616 0.12588,-0.26614 0.06947,-0.12998 0.15135,-0.25252 0.08188,-0.12254 0.17538,-0.23647 0.0935,-0.11393 0.19771,-0.21814 0.10421,-0.10421 0.21814,-0.19771 0.11393,-0.0935 0.23647,-0.17538 0.12254,-0.08188 0.25252,-0.15135 0.12998,-0.06948 0.26614,-0.12588 0.13616,-0.0564 0.277196,-0.09918 0.141034,-0.04278 0.285583,-0.07154 0.144549,-0.02875 0.29122,-0.04319 Q -0.147381,-3 0,-3 q 0.147381,0 0.294051,0.01445 0.146671,0.01444 0.29122,0.04319 0.144549,0.02876 0.285583,0.07154 0.141036,0.04278 0.277196,0.09918 0.13616,0.0564 0.26614,0.12588 0.12998,0.06947 0.25252,0.15135 0.12254,0.08188 0.23647,0.17538 0.11393,0.0935 0.21814,0.19771 0.10421,0.10421 0.19771,0.21814 0.0935,0.11393 0.17538,0.23647 0.08188,0.12254 0.15135,0.25252 0.06948,0.12998 0.12588,0.26614 0.0564,0.13616 0.09918,0.277196 0.04278,0.141034 0.07154,0.285583 0.02875,0.144549 0.04319,0.29122 Q 3,-0.147381 3,0"
               id="path44"
               style="display:inline" /></g><path
             fill="#eeeeee"
             d="m 69.2129,49.334152 q 0,0.171944 -0.01685,0.343071 -0.01686,0.171116 -0.0504,0.339746 -0.03354,0.168642 -0.08345,0.33319 -0.04992,0.164535 -0.115722,0.323389 -0.0658,0.158865 -0.146849,0.310497 -0.08106,0.151644 -0.176587,0.294608 -0.09553,0.142975 -0.204599,0.275882 -0.109084,0.132919 -0.230674,0.254498 -0.121579,0.12159 -0.254498,0.230662 -0.132907,0.109084 -0.275882,0.204611 -0.142964,0.09553 -0.294608,0.176587 -0.151632,0.08105 -0.310497,0.146849 -0.158854,0.0658 -0.323389,0.11571 -0.164548,0.04992 -0.333178,0.08346 -0.168642,0.03354 -0.339758,0.0504 -0.171115,0.01685 -0.343071,0.01685 -0.171939,0 -0.343055,-0.01685 -0.171117,-0.01686 -0.339757,-0.0504 -0.168641,-0.03354 -0.333181,-0.08346 -0.164541,-0.04991 -0.323397,-0.11571 -0.158857,-0.0658 -0.310498,-0.146849 -0.151641,-0.08106 -0.294608,-0.176587 -0.142967,-0.09553 -0.275881,-0.204611 -0.132915,-0.109072 -0.254503,-0.230662 -0.121579,-0.121579 -0.230662,-0.254498 -0.109072,-0.132907 -0.204599,-0.275882 -0.09553,-0.142964 -0.176587,-0.294608 -0.08105,-0.151632 -0.146849,-0.310497 -0.0658,-0.158854 -0.115722,-0.323389 -0.04991,-0.164548 -0.08345,-0.33319 -0.03354,-0.16863 -0.0504,-0.339746 -0.01686,-0.171127 -0.01686,-0.343071 0,-0.171943 0.01686,-0.343059 0.01686,-0.171115 0.0504,-0.339758 0.03354,-0.168642 0.08345,-0.333177 0.04992,-0.164536 0.115722,-0.323401 0.0658,-0.158854 0.146849,-0.310498 0.08106,-0.151632 0.176587,-0.294607 0.09553,-0.142964 0.204599,-0.275883 0.109083,-0.132907 0.230662,-0.254497 0.121588,-0.121579 0.254503,-0.230662 0.132914,-0.109078 0.275881,-0.204605 0.142967,-0.09553 0.294608,-0.176581 0.151641,-0.08105 0.310498,-0.146855 0.158856,-0.0658 0.323397,-0.115713 0.16454,-0.04991 0.333181,-0.08346 0.16864,-0.03355 0.339757,-0.0504 0.171116,-0.01685 0.343055,-0.01685 0.171956,0 0.343071,0.01685 0.171116,0.01685 0.339758,0.0504 0.16863,0.03355 0.333178,0.08346 0.164535,0.04991 0.323389,0.115713 0.158865,0.0658 0.310497,0.146855 0.151644,0.08105 0.294608,0.176581 0.142975,0.09553 0.275882,0.204605 0.132919,0.109083 0.254498,0.230662 0.12159,0.12159 0.230674,0.254497 0.109072,0.132919 0.204599,0.275883 0.09553,0.142975 0.176587,0.294607 0.08105,0.151644 0.146849,0.310498 0.0658,0.158865 0.115722,0.323401 0.04991,0.164535 0.08345,0.333177 0.03354,0.168643 0.0504,0.339758 0.01685,0.171116 0.01685,0.343059"
             id="path45"
             style="display:inline;stroke-width:1.16667" /></g><path
           fill="none"
           stroke="#111111"
           stroke-width="0.5"
           stroke-linecap="round"
           stroke-linejoin="round"
           transform="matrix(1.16667,0,0,2.33333,63.1667,49.1667)"
           d="M 3,0 Q 3,0.147381 2.98555,0.294051 2.97111,0.440722 2.94236,0.585271 2.9136,0.72982 2.87082,0.870854 2.82804,1.01189 2.77164,1.14805 2.71524,1.28421 2.64576,1.41419 2.57629,1.54417 2.49441,1.66671 2.41253,1.78925 2.31903,1.90318 2.22553,2.01711 2.12132,2.12132 2.01711,2.22553 1.90318,2.31903 1.78925,2.41253 1.66671,2.49441 1.54417,2.57629 1.41419,2.64576 1.28421,2.71524 1.14805,2.77164 1.01189,2.82804 0.870854,2.87082 0.72982,2.9136 0.585271,2.94236 0.440722,2.97111 0.294051,2.98555 0.147381,3 0,3 -0.147381,3 -0.294051,2.98555 -0.440722,2.97111 -0.585271,2.94236 -0.72982,2.9136 -0.870854,2.87082 -1.01189,2.82804 -1.14805,2.77164 -1.28421,2.71524 -1.41419,2.64576 -1.54417,2.57629 -1.66671,2.49441 -1.78925,2.41253 -1.90318,2.31903 -2.01711,2.22553 -2.12132,2.12132 -2.22553,2.01711 -2.31903,1.90318 -2.41253,1.78925 -2.49441,1.66671 -2.57629,1.54417 -2.64576,1.41419 -2.71524,1.28421 -2.77164,1.14805 -2.82804,1.01189 -2.87082,0.870854 -2.9136,0.72982 -2.94236,0.585271 -2.97111,0.440722 -2.98555,0.294051 -3,0.147381 -3,0 q 0,-0.147381 0.01445,-0.294051 0.01444,-0.146671 0.04319,-0.29122 0.02876,-0.144549 0.07154,-0.285583 0.04278,-0.141036 0.09918,-0.277196 0.0564,-0.13616 0.12588,-0.26614 0.06947,-0.12998 0.15135,-0.25252 0.08188,-0.12254 0.17538,-0.23647 0.0935,-0.11393 0.19771,-0.21814 0.10421,-0.10421 0.21814,-0.19771 0.11393,-0.0935 0.23647,-0.17538 0.12254,-0.08188 0.25252,-0.15135 0.12998,-0.06948 0.26614,-0.12588 0.13616,-0.0564 0.277196,-0.09918 0.141034,-0.04278 0.285583,-0.07154 0.144549,-0.02875 0.29122,-0.04319 Q -0.147381,-3 0,-3 q 0.147381,0 0.294051,0.01445 0.146671,0.01444 0.29122,0.04319 0.144549,0.02876 0.285583,0.07154 0.141036,0.04278 0.277196,0.09918 0.13616,0.0564 0.26614,0.12588 0.12998,0.06947 0.25252,0.15135 0.12254,0.08188 0.23647,0.17538 0.11393,0.0935 0.21814,0.19771 0.10421,0.10421 0.19771,0.21814 0.0935,0.11393 0.17538,0.23647 0.08188,0.12254 0.15135,0.25252 0.06948,0.12998 0.12588,0.26614 0.0564,0.13616 0.09918,0.277196 0.04278,0.141034 0.07154,0.285583 0.02875,0.144549 0.04319,0.29122 Q 3,-0.147381 3,0"
           id="path46"
           style="display:inline" /></g><g
         id="g48"
         style="display:inline"
         transform="matrix(60.00003,0,0,60.00003,-55901.356,-27192.099)"
         inkscape:label="smile"><path
           fill="none"
           stroke="#111111"
           stroke-width="1.5"
           stroke-linecap="round"
           stroke-linejoin="round"
           transform="matrix(0.45000005,0,0,0.45000005,959.99642,468.01648)"
           d="M -6,0 Q 0,-3 6,0"
           id="path47"
           style="display:none" /><path
           fill="none"
           stroke="#111111"
           paint-order="fill stroke markers"
           d="m 957.3,468 q 2.7,2.25 5.4,0"
           stroke-linecap="round"
           stroke-miterlimit="10"
           stroke-width="0.675"
           stroke-dasharray="none"
           id="path48"
           style="display:inline" /></g></g></g></svg>
