<svg viewBox="-80 -80 160 160" xmlns="http://www.w3.org/2000/svg">

<defs>
  <filter id="glow">
    <feGaussianBlur stdDeviation="0.5"/>
  </filter>

  <radialGradient id="centerFade">
    <stop offset="0%" stop-color="white" stop-opacity="0.25"/>
    <stop offset="70%" stop-color="white" stop-opacity="0.05"/>
    <stop offset="100%" stop-color="white" stop-opacity="0"/>
  </radialGradient>
</defs>

<!-- center light -->
<circle r="28" fill="url(#centerFade)"/>

<g stroke="white" fill="none" stroke-linejoin="round" filter="url(#glow)">

<polygon stroke-width="6" opacity="0.20" points="0,-62 53.7,-31 53.7,31 0,62 -53.7,31 -53.7,-31"/>
<polygon stroke-width="6" opacity="0.25" points="0,-58 50.2,-29 50.2,29 0,58 -50.2,29 -50.2,-29"/>
<polygon stroke-width="5.8" opacity="0.30" points="0,-54 46.8,-27 46.8,27 0,54 -46.8,27 -46.8,-27"/>
<polygon stroke-width="5.6" opacity="0.35" points="0,-50 43.3,-25 43.3,25 0,50 -43.3,25 -43.3,-25"/>
<polygon stroke-width="5.4" opacity="0.40" points="0,-46 39.8,-23 39.8,23 0,46 -39.8,23 -39.8,-23"/>
<polygon stroke-width="5.2" opacity="0.45" points="0,-42 36.4,-21 36.4,21 0,42 -36.4,21 -36.4,-21"/>
<polygon stroke-width="5" opacity="0.50" points="0,-38 32.9,-19 32.9,19 0,38 -32.9,19 -32.9,-19"/>
<polygon stroke-width="4.8" opacity="0.55" points="0,-34 29.4,-17 29.4,17 0,34 -29.4,17 -29.4,-17"/>
<polygon stroke-width="4.6" opacity="0.60" points="0,-30 26,-15 26,15 0,30 -26,15 -26,-15"/>
<polygon stroke-width="4.4" opacity="0.65" points="0,-26 22.5,-13 22.5,13 0,26 -22.5,13 -22.5,-13"/>
<polygon stroke-width="4.2" opacity="0.70" points="0,-22 19,-11 19,11 0,22 -19,11 -19,-11"/>
<polygon stroke-width="4" opacity="0.80" points="0,-18 15.6,-9 15.6,9 0,18 -15.6,9 -15.6,-9"/>
<polygon stroke-width="3.8" opacity="0.90" points="0,-14 12.1,-7 12.1,7 0,14 -12.1,7 -12.1,-7"/>
<polygon stroke-width="3.6" opacity="1" points="0,-10 8.66,-5 8.66,5 0,10 -8.66,5 -8.66,-5"/>

</g>

</svg>
